<?xml version="1.0" encoding="utf-8" standalone="no"?>
<!DOCTYPE svg PUBLIC "-//W3C//DTD SVG 1.1//EN"
  "http://www.w3.org/Graphics/SVG/1.1/DTD/svg11.dtd">
<svg xmlns:xlink="http://www.w3.org/1999/xlink" width="386.845313pt" height="248.518125pt" viewBox="0 0 386.845313 248.518125" xmlns="http://www.w3.org/2000/svg" version="1.1">
 <metadata>
  <rdf:RDF xmlns:dc="http://purl.org/dc/elements/1.1/" xmlns:cc="http://creativecommons.org/ns#" xmlns:rdf="http://www.w3.org/1999/02/22-rdf-syntax-ns#">
   <cc:Work>
    <dc:type rdf:resource="http://purl.org/dc/dcmitype/StillImage"/>
    <dc:date>2022-07-31T17:01:34.797798</dc:date>
    <dc:format>image/svg+xml</dc:format>
    <dc:creator>
     <cc:Agent>
      <dc:title>Matplotlib v3.5.2, https://matplotlib.org/</dc:title>
     </cc:Agent>
    </dc:creator>
   </cc:Work>
  </rdf:RDF>
 </metadata>
 <defs>
  <style type="text/css">*{stroke-linejoin: round; stroke-linecap: butt}</style>
 </defs>
 <g id="figure_1">
  <g id="patch_1">
   <path d="M 0 248.518125 
L 386.845313 248.518125 
L 386.845313 0 
L 0 0 
L 0 248.518125 
z
" style="fill: none"/>
  </g>
  <g id="axes_1">
   <g id="patch_2">
    <path d="M 44.845313 224.64 
L 379.645313 224.64 
L 379.645313 7.2 
L 44.845313 7.2 
z
" style="fill: #ffffff"/>
   </g>
   <g id="matplotlib.axis_1">
    <g id="xtick_1">
     <g id="line2d_1">
      <defs>
       <path id="m5186f1db06" d="M 0 0 
L 0 3.5 
" style="stroke: #000000; stroke-width: 0.8"/>
      </defs>
      <g>
       <use xlink:href="#m5186f1db06" x="60.063494" y="224.64" style="stroke: #000000; stroke-width: 0.8"/>
      </g>
     </g>
     <g id="text_1">
      <!-- 0 -->
      <g transform="translate(56.882244 239.238437)scale(0.1 -0.1)">
       <defs>
        <path id="DejaVuSans-30" d="M 2034 4250 
Q 1547 4250 1301 3770 
Q 1056 3291 1056 2328 
Q 1056 1369 1301 889 
Q 1547 409 2034 409 
Q 2525 409 2770 889 
Q 3016 1369 3016 2328 
Q 3016 3291 2770 3770 
Q 2525 4250 2034 4250 
z
M 2034 4750 
Q 2819 4750 3233 4129 
Q 3647 3509 3647 2328 
Q 3647 1150 3233 529 
Q 2819 -91 2034 -91 
Q 1250 -91 836 529 
Q 422 1150 422 2328 
Q 422 3509 836 4129 
Q 1250 4750 2034 4750 
z
" transform="scale(0.015625)"/>
       </defs>
       <use xlink:href="#DejaVuSans-30"/>
      </g>
     </g>
    </g>
    <g id="xtick_2">
     <g id="line2d_2">
      <g>
       <use xlink:href="#m5186f1db06" x="129.111506" y="224.64" style="stroke: #000000; stroke-width: 0.8"/>
      </g>
     </g>
     <g id="text_2">
      <!-- 1000 -->
      <g transform="translate(116.386506 239.238437)scale(0.1 -0.1)">
       <defs>
        <path id="DejaVuSans-31" d="M 794 531 
L 1825 531 
L 1825 4091 
L 703 3866 
L 703 4441 
L 1819 4666 
L 2450 4666 
L 2450 531 
L 3481 531 
L 3481 0 
L 794 0 
L 794 531 
z
" transform="scale(0.015625)"/>
       </defs>
       <use xlink:href="#DejaVuSans-31"/>
       <use xlink:href="#DejaVuSans-30" x="63.623047"/>
       <use xlink:href="#DejaVuSans-30" x="127.246094"/>
       <use xlink:href="#DejaVuSans-30" x="190.869141"/>
      </g>
     </g>
    </g>
    <g id="xtick_3">
     <g id="line2d_3">
      <g>
       <use xlink:href="#m5186f1db06" x="198.159518" y="224.64" style="stroke: #000000; stroke-width: 0.8"/>
      </g>
     </g>
     <g id="text_3">
      <!-- 2000 -->
      <g transform="translate(185.434518 239.238437)scale(0.1 -0.1)">
       <defs>
        <path id="DejaVuSans-32" d="M 1228 531 
L 3431 531 
L 3431 0 
L 469 0 
L 469 531 
Q 828 903 1448 1529 
Q 2069 2156 2228 2338 
Q 2531 2678 2651 2914 
Q 2772 3150 2772 3378 
Q 2772 3750 2511 3984 
Q 2250 4219 1831 4219 
Q 1534 4219 1204 4116 
Q 875 4013 500 3803 
L 500 4441 
Q 881 4594 1212 4672 
Q 1544 4750 1819 4750 
Q 2544 4750 2975 4387 
Q 3406 4025 3406 3419 
Q 3406 3131 3298 2873 
Q 3191 2616 2906 2266 
Q 2828 2175 2409 1742 
Q 1991 1309 1228 531 
z
" transform="scale(0.015625)"/>
       </defs>
       <use xlink:href="#DejaVuSans-32"/>
       <use xlink:href="#DejaVuSans-30" x="63.623047"/>
       <use xlink:href="#DejaVuSans-30" x="127.246094"/>
       <use xlink:href="#DejaVuSans-30" x="190.869141"/>
      </g>
     </g>
    </g>
    <g id="xtick_4">
     <g id="line2d_4">
      <g>
       <use xlink:href="#m5186f1db06" x="267.20753" y="224.64" style="stroke: #000000; stroke-width: 0.8"/>
      </g>
     </g>
     <g id="text_4">
      <!-- 3000 -->
      <g transform="translate(254.48253 239.238437)scale(0.1 -0.1)">
       <defs>
        <path id="DejaVuSans-33" d="M 2597 2516 
Q 3050 2419 3304 2112 
Q 3559 1806 3559 1356 
Q 3559 666 3084 287 
Q 2609 -91 1734 -91 
Q 1441 -91 1130 -33 
Q 819 25 488 141 
L 488 750 
Q 750 597 1062 519 
Q 1375 441 1716 441 
Q 2309 441 2620 675 
Q 2931 909 2931 1356 
Q 2931 1769 2642 2001 
Q 2353 2234 1838 2234 
L 1294 2234 
L 1294 2753 
L 1863 2753 
Q 2328 2753 2575 2939 
Q 2822 3125 2822 3475 
Q 2822 3834 2567 4026 
Q 2313 4219 1838 4219 
Q 1578 4219 1281 4162 
Q 984 4106 628 3988 
L 628 4550 
Q 988 4650 1302 4700 
Q 1616 4750 1894 4750 
Q 2613 4750 3031 4423 
Q 3450 4097 3450 3541 
Q 3450 3153 3228 2886 
Q 3006 2619 2597 2516 
z
" transform="scale(0.015625)"/>
       </defs>
       <use xlink:href="#DejaVuSans-33"/>
       <use xlink:href="#DejaVuSans-30" x="63.623047"/>
       <use xlink:href="#DejaVuSans-30" x="127.246094"/>
       <use xlink:href="#DejaVuSans-30" x="190.869141"/>
      </g>
     </g>
    </g>
    <g id="xtick_5">
     <g id="line2d_5">
      <g>
       <use xlink:href="#m5186f1db06" x="336.255542" y="224.64" style="stroke: #000000; stroke-width: 0.8"/>
      </g>
     </g>
     <g id="text_5">
      <!-- 4000 -->
      <g transform="translate(323.530542 239.238437)scale(0.1 -0.1)">
       <defs>
        <path id="DejaVuSans-34" d="M 2419 4116 
L 825 1625 
L 2419 1625 
L 2419 4116 
z
M 2253 4666 
L 3047 4666 
L 3047 1625 
L 3713 1625 
L 3713 1100 
L 3047 1100 
L 3047 0 
L 2419 0 
L 2419 1100 
L 313 1100 
L 313 1709 
L 2253 4666 
z
" transform="scale(0.015625)"/>
       </defs>
       <use xlink:href="#DejaVuSans-34"/>
       <use xlink:href="#DejaVuSans-30" x="63.623047"/>
       <use xlink:href="#DejaVuSans-30" x="127.246094"/>
       <use xlink:href="#DejaVuSans-30" x="190.869141"/>
      </g>
     </g>
    </g>
   </g>
   <g id="matplotlib.axis_2">
    <g id="ytick_1">
     <g id="line2d_6">
      <defs>
       <path id="mf6661c6b34" d="M 0 0 
L -3.5 0 
" style="stroke: #000000; stroke-width: 0.8"/>
      </defs>
      <g>
       <use xlink:href="#mf6661c6b34" x="44.845313" y="191.788573" style="stroke: #000000; stroke-width: 0.8"/>
      </g>
     </g>
     <g id="text_6">
      <!-- −0.04 -->
      <g transform="translate(7.2 195.587792)scale(0.1 -0.1)">
       <defs>
        <path id="DejaVuSans-2212" d="M 678 2272 
L 4684 2272 
L 4684 1741 
L 678 1741 
L 678 2272 
z
" transform="scale(0.015625)"/>
        <path id="DejaVuSans-2e" d="M 684 794 
L 1344 794 
L 1344 0 
L 684 0 
L 684 794 
z
" transform="scale(0.015625)"/>
       </defs>
       <use xlink:href="#DejaVuSans-2212"/>
       <use xlink:href="#DejaVuSans-30" x="83.789062"/>
       <use xlink:href="#DejaVuSans-2e" x="147.412109"/>
       <use xlink:href="#DejaVuSans-30" x="179.199219"/>
       <use xlink:href="#DejaVuSans-34" x="242.822266"/>
      </g>
     </g>
    </g>
    <g id="ytick_2">
     <g id="line2d_7">
      <g>
       <use xlink:href="#mf6661c6b34" x="44.845313" y="156.642941" style="stroke: #000000; stroke-width: 0.8"/>
      </g>
     </g>
     <g id="text_7">
      <!-- −0.02 -->
      <g transform="translate(7.2 160.44216)scale(0.1 -0.1)">
       <use xlink:href="#DejaVuSans-2212"/>
       <use xlink:href="#DejaVuSans-30" x="83.789062"/>
       <use xlink:href="#DejaVuSans-2e" x="147.412109"/>
       <use xlink:href="#DejaVuSans-30" x="179.199219"/>
       <use xlink:href="#DejaVuSans-32" x="242.822266"/>
      </g>
     </g>
    </g>
    <g id="ytick_3">
     <g id="line2d_8">
      <g>
       <use xlink:href="#mf6661c6b34" x="44.845313" y="121.49731" style="stroke: #000000; stroke-width: 0.8"/>
      </g>
     </g>
     <g id="text_8">
      <!-- 0.00 -->
      <g transform="translate(15.579688 125.296528)scale(0.1 -0.1)">
       <use xlink:href="#DejaVuSans-30"/>
       <use xlink:href="#DejaVuSans-2e" x="63.623047"/>
       <use xlink:href="#DejaVuSans-30" x="95.410156"/>
       <use xlink:href="#DejaVuSans-30" x="159.033203"/>
      </g>
     </g>
    </g>
    <g id="ytick_4">
     <g id="line2d_9">
      <g>
       <use xlink:href="#mf6661c6b34" x="44.845313" y="86.351678" style="stroke: #000000; stroke-width: 0.8"/>
      </g>
     </g>
     <g id="text_9">
      <!-- 0.02 -->
      <g transform="translate(15.579688 90.150897)scale(0.1 -0.1)">
       <use xlink:href="#DejaVuSans-30"/>
       <use xlink:href="#DejaVuSans-2e" x="63.623047"/>
       <use xlink:href="#DejaVuSans-30" x="95.410156"/>
       <use xlink:href="#DejaVuSans-32" x="159.033203"/>
      </g>
     </g>
    </g>
    <g id="ytick_5">
     <g id="line2d_10">
      <g>
       <use xlink:href="#mf6661c6b34" x="44.845313" y="51.206046" style="stroke: #000000; stroke-width: 0.8"/>
      </g>
     </g>
     <g id="text_10">
      <!-- 0.04 -->
      <g transform="translate(15.579688 55.005265)scale(0.1 -0.1)">
       <use xlink:href="#DejaVuSans-30"/>
       <use xlink:href="#DejaVuSans-2e" x="63.623047"/>
       <use xlink:href="#DejaVuSans-30" x="95.410156"/>
       <use xlink:href="#DejaVuSans-34" x="159.033203"/>
      </g>
     </g>
    </g>
    <g id="ytick_6">
     <g id="line2d_11">
      <g>
       <use xlink:href="#mf6661c6b34" x="44.845313" y="16.060415" style="stroke: #000000; stroke-width: 0.8"/>
      </g>
     </g>
     <g id="text_11">
      <!-- 0.06 -->
      <g transform="translate(15.579688 19.859633)scale(0.1 -0.1)">
       <defs>
        <path id="DejaVuSans-36" d="M 2113 2584 
Q 1688 2584 1439 2293 
Q 1191 2003 1191 1497 
Q 1191 994 1439 701 
Q 1688 409 2113 409 
Q 2538 409 2786 701 
Q 3034 994 3034 1497 
Q 3034 2003 2786 2293 
Q 2538 2584 2113 2584 
z
M 3366 4563 
L 3366 3988 
Q 3128 4100 2886 4159 
Q 2644 4219 2406 4219 
Q 1781 4219 1451 3797 
Q 1122 3375 1075 2522 
Q 1259 2794 1537 2939 
Q 1816 3084 2150 3084 
Q 2853 3084 3261 2657 
Q 3669 2231 3669 1497 
Q 3669 778 3244 343 
Q 2819 -91 2113 -91 
Q 1303 -91 875 529 
Q 447 1150 447 2328 
Q 447 3434 972 4092 
Q 1497 4750 2381 4750 
Q 2619 4750 2861 4703 
Q 3103 4656 3366 4563 
z
" transform="scale(0.015625)"/>
       </defs>
       <use xlink:href="#DejaVuSans-30"/>
       <use xlink:href="#DejaVuSans-2e" x="63.623047"/>
       <use xlink:href="#DejaVuSans-30" x="95.410156"/>
       <use xlink:href="#DejaVuSans-36" x="159.033203"/>
      </g>
     </g>
    </g>
   </g>
   <g id="line2d_12">
    <path d="M 60.063494 126.591968 
L 60.54683 158.339731 
L 60.615878 157.159915 
L 60.684926 156.730891 
L 61.030166 167.778255 
L 61.099214 168.368163 
L 61.168263 168.207279 
L 61.720647 192.125357 
L 61.789695 191.964473 
L 61.858743 191.052797 
L 62.065887 198.024434 
L 62.134935 195.932943 
L 62.203983 193.519684 
L 62.273031 194.96764 
L 62.480175 199.686902 
L 62.549223 199.311506 
L 62.618271 199.47239 
L 62.756367 201.885649 
L 62.825415 201.617509 
L 62.963511 197.863551 
L 63.032559 198.66797 
L 63.170655 202.529185 
L 63.308751 199.365134 
L 63.446847 204.996072 
L 63.515895 204.138024 
L 63.792087 193.251544 
L 64.896855 172.980169 
L 64.965903 173.462821 
L 65.034951 174.910776 
L 65.103999 173.838216 
L 65.449239 155.872844 
L 65.587335 151.421722 
L 65.794479 155.068424 
L 65.863527 154.264004 
L 66.208767 144.074689 
L 66.346863 139.998962 
L 66.484959 144.021061 
L 66.623055 138.926403 
L 66.761151 136.137748 
L 66.830199 136.727656 
L 67.037344 132.437417 
L 67.17544 132.920069 
L 67.244488 132.759185 
L 67.382584 130.721322 
L 67.589728 132.973697 
L 67.658776 132.866441 
L 67.86592 133.563605 
L 68.21116 131.04309 
L 68.418304 133.831745 
L 68.487352 132.491045 
L 68.5564 132.759185 
L 68.970688 141.071522 
L 69.108784 142.144081 
L 69.177832 141.715057 
L 69.315928 140.106218 
L 69.868312 146.756087 
L 69.93736 146.219808 
L 70.006408 144.771852 
L 70.075456 145.36176 
L 70.213552 148.633067 
L 70.2826 147.828647 
L 70.351648 148.096787 
L 70.558792 151.475349 
L 70.62784 151.314466 
L 70.765936 150.510046 
L 70.834984 150.510046 
L 70.904032 150.241906 
L 71.042128 147.506879 
L 71.111176 147.560507 
L 71.180224 148.686695 
L 71.249272 148.257671 
L 71.31832 147.828647 
L 71.525464 148.793951 
L 71.594512 148.686695 
L 71.66356 148.740323 
L 71.870704 145.469016 
L 71.939752 145.6299 
L 72.284992 140.85701 
L 72.561184 137.317563 
L 72.975473 132.437417 
L 73.320713 125.787548 
L 73.527857 123.642429 
L 74.356433 107.714919 
L 74.494529 107.17864 
L 75.046913 96.774812 
L 75.254057 91.78741 
L 75.392153 92.484574 
L 75.530249 91.626526 
L 75.599297 91.841038 
L 75.737393 92.806341 
L 75.875489 88.247963 
L 76.082633 82.670654 
L 76.151681 82.724282 
L 76.220729 82.992421 
L 76.427873 87.765311 
L 76.496921 86.370984 
L 76.704065 76.93246 
L 76.842161 79.292091 
L 76.911209 78.809439 
L 76.980257 76.771576 
L 77.049305 76.825204 
L 77.187401 80.579162 
L 77.256449 79.935627 
L 77.463593 76.93246 
L 77.532641 76.878832 
L 77.670737 75.055481 
L 77.739785 75.162737 
L 77.946929 77.897764 
L 78.154073 71.35515 
L 78.223121 72.69585 
L 78.292169 73.822037 
L 78.430265 71.35515 
L 78.499313 71.784174 
L 78.63741 75.109109 
L 78.775506 67.976588 
L 78.844554 68.083844 
L 78.913602 70.765242 
L 78.98265 70.443475 
L 79.051698 68.995519 
L 79.120746 69.531799 
L 79.189794 70.014451 
L 79.465986 65.187933 
L 79.604082 60.093275 
L 79.742178 62.34565 
L 80.01837 59.396111 
L 80.087418 59.610623 
L 80.156466 60.039647 
L 80.294562 53.175266 
L 80.36361 54.837733 
L 80.432658 58.806203 
L 80.501706 58.698947 
L 80.70885 49.582191 
L 80.846946 48.992283 
L 81.05409 43.039578 
L 81.192186 51.620054 
L 81.261234 50.601123 
L 81.330282 47.544328 
L 81.39933 48.241492 
L 81.468378 49.474935 
L 81.675522 40.894459 
L 81.74457 41.806134 
L 81.882666 44.648417 
L 81.951714 44.112137 
L 82.08981 41.859762 
L 82.711242 72.588594 
L 82.78029 71.62329 
L 83.056482 46.847164 
L 83.12553 50.976519 
L 83.539818 94.629693 
L 83.81601 77.415112 
L 83.954106 83.099677 
L 84.16125 115.866372 
L 84.230298 114.686557 
L 84.299346 110.449946 
L 84.368394 110.503574 
L 84.506491 118.655027 
L 84.644587 113.667625 
L 84.851731 126.752852 
L 84.989827 138.658263 
L 85.058875 137.853843 
L 85.196971 131.901137 
L 85.335067 135.601468 
L 85.473163 151.368094 
L 85.749355 183.169485 
L 86.163643 153.727725 
L 86.301739 173.141053 
L 86.508883 198.721598 
L 86.923171 182.794089 
L 87.061267 191.910845 
L 87.268411 207.677471 
L 87.475555 197.005503 
L 87.613651 189.12219 
L 87.682699 189.283074 
L 87.889843 198.346202 
L 88.027939 200.169554 
L 88.442227 191.803589 
L 88.649371 202.421929 
L 88.718419 200.27681 
L 89.063659 178.396594 
L 89.201755 175.822452 
L 89.339851 177.860315 
L 89.616043 187.888747 
L 89.685091 185.69 
L 89.961283 165.686764 
L 90.030331 167.778255 
L 90.099379 167.724627 
L 90.237476 162.737225 
L 90.375572 168.314535 
L 90.44462 166.705695 
L 90.78986 150.027394 
L 90.997004 156.033728 
L 91.066052 158.232475 
L 91.1351 157.320799 
L 91.342244 147.989531 
L 91.411292 148.579439 
L 91.48034 146.863343 
L 91.618436 139.838078 
L 91.756532 146.112552 
L 91.82558 144.986364 
L 92.101772 135.762352 
L 92.17082 136.727656 
L 92.51606 145.147248 
L 92.654156 141.983197 
L 92.792252 144.771852 
L 93.068444 136.405888 
L 93.137492 137.103051 
L 93.275588 143.913805 
L 93.344636 143.592037 
L 93.413684 143.913805 
L 93.55178 146.541575 
L 93.689876 145.200876 
L 93.758924 145.254504 
L 93.89702 143.913805 
L 94.24226 151.743489 
L 94.311308 151.20721 
L 94.449404 146.756087 
L 94.518452 146.916971 
L 94.5875 147.185111 
L 94.794644 151.528977 
L 94.863692 150.456418 
L 94.93274 150.563674 
L 95.070836 152.494281 
L 95.27798 150.40279 
L 95.416076 151.153582 
L 95.554172 153.245073 
L 95.761316 152.118885 
L 96.244653 143.752921 
L 96.451797 149.008462 
L 96.520845 147.882275 
L 96.727989 143.913805 
L 96.935133 139.194542 
L 97.004181 139.194542 
L 97.142277 136.566772 
L 97.211325 136.6204 
L 97.349421 137.961099 
L 97.763709 127.986295 
L 97.832757 127.074619 
L 97.901805 127.289131 
L 97.970853 126.967363 
L 98.108949 124.607732 
L 98.177997 124.768616 
L 98.454189 120.585634 
L 98.661333 116.349024 
L 98.799429 112.970461 
L 99.144669 107.017756 
L 99.213717 107.017756 
L 99.351813 105.30166 
L 99.420861 106.159708 
L 99.489909 105.730684 
L 99.904197 95.809508 
L 99.973245 96.184904 
L 100.042293 96.02402 
L 100.180389 95.863136 
L 100.249437 95.916764 
L 100.387533 95.165972 
L 100.456581 95.541368 
L 100.870869 88.087079 
L 101.008965 90.607594 
L 101.078013 90.017687 
L 101.216109 89.803175 
L 101.423253 85.459308 
L 101.492301 85.995588 
L 101.768493 84.279493 
L 101.837542 84.815773 
L 101.90659 84.762145 
L 102.182782 82.134374 
L 102.25183 82.24163 
L 102.389926 84.923029 
L 102.458974 84.064981 
L 102.735166 74.572829 
L 102.94231 82.188002 
L 103.218502 76.986088 
L 103.28755 77.522368 
L 103.356598 80.471906 
L 103.425646 80.150139 
L 103.563742 75.59176 
L 103.63279 79.184835 
L 103.701838 78.112275 
L 103.839934 71.033382 
L 103.97803 76.020784 
L 104.047078 75.806272 
L 104.185174 72.266826 
L 104.32327 74.519201 
L 104.392318 73.822037 
L 104.599462 65.831468 
L 104.66851 66.58226 
L 104.806606 68.620123 
L 104.944702 67.11854 
L 105.082798 72.213198 
L 105.220894 77.897764 
L 105.289942 76.771576 
L 105.70423 52.585358 
L 105.773278 53.33615 
L 106.04947 70.657986 
L 106.187566 67.762076 
L 106.39471 55.374013 
L 106.532806 49.743075 
L 106.73995 59.932391 
L 106.808998 58.752575 
L 106.947094 66.528632 
L 107.016142 63.686349 
L 107.223286 48.29512 
L 107.292334 48.938655 
L 107.499478 61.112206 
L 107.568526 59.610623 
L 107.706623 69.478171 
L 107.913767 78.809439 
L 107.982815 76.235296 
L 108.189959 57.680016 
L 108.328055 65.187933 
L 108.397103 63.042814 
L 108.466151 63.15007 
L 108.673295 91.572898 
L 108.742343 91.090246 
L 109.087583 81.115442 
L 109.156631 82.348886 
L 109.363775 109.699155 
L 109.432823 101.118678 
L 109.501871 93.771645 
L 109.639967 112.648693 
L 109.709015 111.254366 
L 109.847111 98.437279 
L 110.054255 122.248101 
L 110.123303 121.282798 
L 110.192351 120.317494 
L 110.537591 130.667694 
L 110.744735 146.756087 
L 110.813783 144.986364 
L 110.882831 143.109385 
L 111.020927 149.383858 
L 111.089975 147.721391 
L 111.159023 146.702459 
L 111.435215 158.715127 
L 111.642359 167.510115 
L 111.780455 166.598439 
L 112.263791 178.396594 
L 112.332839 179.04013 
L 112.470935 178.182083 
L 112.678079 185.100092 
L 112.816175 182.043297 
L 112.954271 189.65847 
L 113.161415 181.131621 
L 113.368559 195.986571 
L 113.575704 187.942375 
L 113.644752 191.052797 
L 113.7138 190.087494 
L 113.851896 184.939208 
L 113.989992 189.765726 
L 114.197136 183.973904 
L 114.335232 186.440791 
L 114.542376 175.3398 
L 114.611424 177.913943 
L 114.680472 182.311437 
L 114.74952 181.507017 
L 114.887616 177.484919 
L 114.956664 178.718362 
L 115.025712 178.557478 
L 115.232856 171.693097 
L 115.370952 172.926541 
L 115.44 172.497517 
L 115.578096 174.26724 
L 115.647144 172.658401 
L 115.854288 156.462751 
L 115.923336 159.358662 
L 116.061432 162.629969 
L 116.199528 160.645734 
L 116.337624 164.45332 
L 116.544768 154.156748 
L 116.682864 159.894942 
L 116.751912 158.500615 
L 116.82096 155.390192 
L 116.890008 156.24824 
L 116.959056 159.41229 
L 117.028104 157.696195 
L 117.235248 144.396456 
L 117.373344 152.226141 
L 117.442392 151.314466 
L 117.51144 149.33023 
L 117.580488 149.920138 
L 117.718584 153.459585 
L 117.925728 147.614135 
L 117.994776 149.59837 
L 118.063824 152.333397 
L 118.132872 151.958001 
L 118.20192 149.008462 
L 118.270968 149.437486 
L 118.340016 152.655165 
L 118.409064 151.958001 
L 118.54716 146.273436 
L 118.685256 151.582605 
L 118.754304 150.992698 
L 118.961448 150.027394 
L 119.099544 151.475349 
L 119.23764 153.888608 
L 119.375737 158.554243 
L 119.513833 152.655165 
L 119.582881 153.405957 
L 119.651929 155.819216 
L 119.720977 154.800284 
L 119.859073 152.333397 
L 120.066217 154.6394 
L 120.204313 154.156748 
L 120.342409 157.642567 
L 120.411457 157.106287 
L 120.549553 152.333397 
L 120.687649 160.431222 
L 120.894793 155.71196 
L 121.032889 157.749823 
L 121.240033 152.387025 
L 121.309081 153.298701 
L 121.378129 154.585772 
L 121.516225 150.13465 
L 121.585273 150.510046 
L 121.654321 152.816049 
L 121.723369 151.958001 
L 121.861465 148.472183 
L 121.999561 153.191445 
L 122.482897 141.768685 
L 122.551945 140.213474 
L 122.690041 143.806549 
L 122.828137 138.819147 
L 122.897185 138.926403 
L 122.966233 139.569938 
L 123.173377 131.57937 
L 123.242425 132.920069 
L 123.311473 135.440584 
L 123.380521 134.421652 
L 123.587665 128.200807 
L 123.656713 128.897971 
L 123.725761 127.771783 
L 123.932905 120.800146 
L 124.071001 121.658194 
L 124.278145 115.169208 
L 124.347193 115.38372 
L 124.554337 111.14711 
L 124.692433 111.737018 
L 124.830529 109.860038 
L 125.451962 99.885235 
L 125.86625 95.75588 
L 125.935298 96.453044 
L 126.073394 92.32369 
L 126.142442 90.232198 
L 126.21149 91.197502 
L 126.349586 95.2196 
L 126.763874 84.976657 
L 126.832922 85.030285 
L 126.971018 89.266895 
L 127.040066 88.730615 
L 127.385306 81.919862 
L 127.454354 81.115442 
L 127.523402 81.16907 
L 127.730546 84.440377 
L 127.868642 78.326787 
L 127.93769 78.809439 
L 128.075786 83.046049 
L 128.213882 79.935627 
L 128.28293 80.579162 
L 128.351978 81.115442 
L 128.490074 73.607525 
L 128.559122 74.036549 
L 128.697218 81.758978 
L 128.766266 81.329954 
L 128.835314 80.150139 
L 128.904362 80.63279 
L 128.97341 82.080746 
L 129.042458 81.758978 
L 129.180554 79.238463 
L 129.249602 79.774743 
L 129.31865 79.452975 
L 129.525794 68.459239 
L 129.66389 75.323621 
L 129.732938 73.875665 
L 129.871034 66.421376 
L 130.00913 78.165903 
L 130.078178 77.2006 
L 130.216274 64.169001 
L 130.35437 68.351983 
L 130.423418 67.601192 
L 130.561514 61.594858 
L 130.630562 63.042814 
L 130.768658 68.941891 
L 130.906755 59.610623 
L 130.975803 59.986019 
L 131.044851 63.686349 
L 131.113899 63.364581 
L 131.321043 52.692614 
L 131.459139 54.462337 
L 131.528187 53.443406 
L 131.735331 43.897625 
L 131.873427 46.471768 
L 132.011523 45.184697 
L 132.080571 45.184697 
L 132.287715 38.105804 
L 132.425811 31.402307 
L 132.494859 31.509562 
L 132.702003 40.733575 
L 132.771051 40.787203 
L 132.909147 50.386611 
L 133.116291 62.667418 
L 133.254387 51.405542 
L 133.461531 33.17203 
L 133.530579 32.313982 
L 133.599627 34.995381 
L 133.944867 75.752644 
L 134.013915 74.197433 
L 134.152011 61.433974 
L 134.290107 51.298286 
L 134.704395 95.702252 
L 134.773443 94.522437 
L 135.049635 78.487671 
L 135.187731 95.058717 
L 135.394875 119.995726 
L 135.463923 122.945265 
L 135.671067 116.18814 
L 136.223451 152.547909 
L 136.292499 150.885442 
L 136.499643 138.765519 
L 136.637739 146.916971 
L 136.98298 183.866648 
L 137.052028 184.778324 
L 137.259172 176.465987 
L 137.32822 177.484919 
L 137.811556 195.879315 
L 137.880604 193.841452 
L 137.949652 191.803589 
L 138.0187 191.964473 
L 138.502036 206.068631 
L 138.70918 203.923512 
L 138.778228 202.153789 
L 138.847276 202.475557 
L 139.05442 206.175887 
L 139.192516 204.674304 
L 139.606804 193.948708 
L 139.675852 194.6995 
L 140.021092 203.709 
L 140.09014 201.992905 
L 140.504428 180.541714 
L 140.573476 178.879246 
L 140.78062 184.671068 
L 140.849668 183.330368 
L 141.333004 164.399692 
L 141.540148 168.100023 
L 142.023484 151.099954 
L 142.230628 152.762421 
L 142.299676 152.869677 
L 142.437772 144.771852 
L 142.575869 137.585703 
L 142.990157 145.522644 
L 143.059205 144.2892 
L 143.266349 134.153513 
L 143.335397 134.260769 
L 143.611589 137.585703 
L 143.749685 141.071522 
L 143.887781 134.689792 
L 143.956829 134.957932 
L 144.094925 137.532075 
L 144.233021 134.689792 
L 144.302069 136.08412 
L 144.509213 141.983197 
L 144.578261 141.715057 
L 144.647309 141.822313 
L 144.716357 143.002129 
L 144.785405 142.626733 
L 144.992549 139.462682 
L 145.130645 141.983197 
L 145.199693 141.661429 
L 145.268741 142.251337 
L 145.406837 148.204043 
L 145.475885 147.345995 
L 145.613981 144.879108 
L 145.821125 147.775019 
L 146.097317 151.689861 
L 146.166365 150.885442 
L 146.304461 146.16618 
L 146.442557 149.169346 
L 146.580653 147.882275 
L 146.787797 153.191445 
L 146.925893 150.081022 
L 146.994941 150.510046 
L 147.133037 153.834981 
L 147.340181 148.740323 
L 147.478277 152.708793 
L 147.685421 148.954835 
L 147.823517 150.778186 
L 148.030661 147.131483 
L 148.099709 147.882275 
L 148.168757 148.901207 
L 148.306853 144.718224 
L 148.375902 145.522644 
L 148.513998 146.970599 
L 148.721142 142.948501 
L 148.79019 143.323897 
L 148.997334 138.872775 
L 149.13543 139.140915 
L 149.273526 136.834911 
L 149.618766 129.219739 
L 149.756862 131.04309 
L 150.240198 123.213405 
L 150.723534 112.541437 
L 150.86163 116.349024 
L 151.068774 110.932598 
L 151.414014 101.118678 
L 151.483062 102.298494 
L 151.621158 108.251199 
L 151.690206 106.9105 
L 151.89735 96.399416 
L 152.035446 98.651791 
L 152.104494 98.437279 
L 152.380686 92.216434 
L 152.518782 89.052383 
L 152.794974 96.613928 
L 152.864022 96.82844 
L 153.002118 94.039785 
L 153.071166 96.82844 
L 153.140214 96.721184 
L 153.27831 84.225865 
L 153.347358 86.639124 
L 153.485454 92.806341 
L 153.692598 87.658056 
L 153.899742 91.197502 
L 153.96879 90.929362 
L 154.037838 91.465642 
L 154.106886 90.98299 
L 154.314031 80.740046 
L 154.521175 93.074481 
L 154.866415 83.314189 
L 154.935463 84.118609 
L 155.004511 85.083913 
L 155.211655 80.042883 
L 155.280703 81.222698 
L 155.349751 80.63279 
L 155.418799 79.828371 
L 155.487847 81.598094 
L 155.556895 81.383582 
L 155.694991 74.680085 
L 155.764039 75.538132 
L 155.971183 81.758978 
L 156.109279 75.59176 
L 156.247375 67.601192 
L 156.454519 74.894597 
L 156.592615 70.604359 
L 156.730711 75.699016 
L 157.144999 59.074343 
L 157.214047 57.680016 
L 157.283095 57.948156 
L 157.352143 58.967087 
L 157.559287 68.244727 
L 157.973575 43.361346 
L 158.111671 41.806134 
L 158.180719 42.235158 
L 158.318815 48.831399 
L 158.525959 37.891292 
L 158.664055 45.881861 
L 158.871199 28.828164 
L 158.940247 30.651515 
L 159.147391 38.695712 
L 159.216439 37.730408 
L 159.285487 39.929155 
L 159.492631 64.705281 
L 159.561679 61.862998 
L 159.699775 54.998617 
L 159.906919 17.083636 
L 160.25216 64.758909 
L 160.390256 80.364651 
L 160.735496 44.702045 
L 160.94264 79.989255 
L 161.080736 103.639193 
L 161.149784 97.954627 
L 161.28788 79.184835 
L 161.356928 84.118609 
L 161.495024 66.635888 
L 161.564072 70.926126 
L 161.840264 127.718155 
L 161.909312 125.787548 
L 162.047408 114.686557 
L 162.116456 116.831676 
L 162.254552 105.516172 
L 162.66884 153.995864 
L 162.737888 151.850745 
L 162.945032 139.355426 
L 163.01408 140.85701 
L 163.290272 170.29877 
L 163.428368 183.973904 
L 163.497416 183.920276 
L 163.635512 177.163151 
L 163.70456 177.860315 
L 163.773608 179.630038 
L 163.842656 178.611106 
L 163.911704 177.592175 
L 164.118848 193.037033 
L 164.187896 192.554381 
L 164.256944 190.033866 
L 164.325992 190.302006 
L 164.464088 194.6995 
L 164.533136 194.484988 
L 164.671232 200.27681 
L 164.809328 206.336771 
L 164.878376 205.639607 
L 164.947424 203.762628 
L 165.016472 203.923512 
L 165.154568 207.891982 
L 165.292664 198.39983 
L 165.361712 199.74053 
L 165.499808 214.756364 
L 165.568856 213.52292 
L 165.706952 203.548116 
L 165.776001 205.907747 
L 165.845049 204.78156 
L 165.983145 196.254711 
L 166.052193 197.756295 
L 166.121241 197.488155 
L 166.190289 196.093827 
L 166.466481 206.765795 
L 166.535529 205.961375 
L 166.949817 182.365065 
L 167.018865 182.794089 
L 167.156961 185.904511 
L 167.226009 185.15372 
L 167.295057 185.42186 
L 167.364105 185.636372 
L 167.433153 184.242044 
L 167.709345 166.759323 
L 167.847441 170.56691 
L 167.916489 169.655234 
L 168.054585 165.418624 
L 168.123633 165.633136 
L 168.192681 165.79402 
L 168.537921 151.958001 
L 168.676017 148.204043 
L 168.745065 148.847579 
L 168.883161 152.762421 
L 169.228401 133.563605 
L 169.297449 136.08412 
L 169.504593 142.036825 
L 169.642689 143.002129 
L 169.849833 131.686626 
L 169.987929 124.822244 
L 170.056977 125.787548 
L 170.402217 138.014727 
L 170.471265 137.317563 
L 170.678409 131.954765 
L 170.747457 132.491045 
L 170.816505 131.901137 
L 170.954601 128.951599 
L 171.092697 133.134581 
L 171.161745 134.689792 
L 171.230793 133.670861 
L 171.368889 130.131414 
L 171.576034 136.6204 
L 171.645082 135.440584 
L 171.71413 134.74342 
L 171.921274 137.961099 
L 172.05937 136.298632 
L 172.473658 141.178778 
L 172.611754 144.342828 
L 172.74985 139.569938 
L 172.887946 136.191376 
L 173.026042 138.014727 
L 173.44033 148.096787 
L 173.509378 147.721391 
L 173.716522 141.768685 
L 173.78557 142.144081 
L 173.923666 139.033659 
L 173.992714 139.24817 
L 174.268906 147.560507 
L 174.407002 144.610968 
L 174.683194 138.551007 
L 174.959386 148.150415 
L 175.028434 147.935903 
L 175.373674 134.957932 
L 175.442722 136.030492 
L 175.580818 138.390123 
L 175.718914 141.39329 
L 175.995106 129.863274 
L 176.133202 131.150346 
L 176.340346 133.563605 
L 176.478442 129.058855 
L 176.616538 125.358524 
L 176.685586 125.304896 
L 176.754634 124.875872 
L 177.099874 116.509908 
L 177.23797 118.976795 
L 177.307018 118.869539 
L 177.721307 110.503574 
L 177.790355 110.664458 
L 177.928451 112.648693 
L 178.342739 101.654958 
L 178.411787 102.673889 
L 178.549883 106.427848 
L 178.687979 103.424681 
L 178.895123 94.683321 
L 178.964171 96.882068 
L 179.240363 102.834773 
L 179.309411 102.030354 
L 179.585603 92.270062 
L 179.654651 91.197502 
L 179.723699 91.572898 
L 179.861795 96.399416 
L 179.930843 95.326856 
L 180.068939 91.25113 
L 180.137987 91.358386 
L 180.207035 89.588663 
L 180.276083 89.803175 
L 180.483227 102.298494 
L 180.759419 90.393082 
L 180.966563 97.36472 
L 181.173707 83.635957 
L 181.242755 84.869401 
L 181.657043 100.207002 
L 182.002283 79.935627 
L 182.071331 81.061814 
L 182.278475 97.311092 
L 182.347523 95.541368 
L 182.554667 83.796841 
L 182.692763 79.989255 
L 182.899907 86.800008 
L 182.968955 85.834704 
L 183.245148 73.393013 
L 183.314196 74.519201 
L 183.383244 74.787341 
L 183.52134 71.033382 
L 183.728484 81.544466 
L 183.797532 78.165903 
L 183.935628 74.465573 
L 184.004676 75.699016 
L 184.073724 74.251061 
L 184.280868 65.295189 
L 184.418964 66.58226 
L 184.764204 64.866165 
L 184.9023 57.358248 
L 184.971348 53.014382 
L 185.040396 53.33615 
L 185.109444 54.891361 
L 185.178492 54.623221 
L 185.59278 44.004881 
L 185.661828 44.809301 
L 185.730876 46.68628 
L 185.799924 45.077441 
L 186.007068 33.17203 
L 186.214212 43.736741 
L 186.559452 70.711614 
L 186.6285 68.620123 
L 186.97374 23.250854 
L 187.388028 81.598094 
L 187.457076 77.575996 
L 187.733268 49.957587 
L 187.802316 50.708379 
L 187.940412 68.781007 
L 188.147556 101.172306 
L 188.423748 73.446641 
L 188.561844 71.194266 
L 188.630892 74.840969 
L 188.907084 129.166111 
L 188.976132 123.267033 
L 189.183277 108.412083 
L 189.252325 106.213336 
L 189.321373 107.929431 
L 189.735661 146.380692 
L 189.873757 141.39329 
L 190.011853 133.080953 
L 190.080901 134.74342 
L 190.357093 167.241975 
L 190.495189 180.273574 
L 190.702333 178.021199 
L 190.771381 177.324035 
L 190.978525 169.387094 
L 191.047573 171.424957 
L 191.254717 188.264142 
L 191.392813 186.119023 
L 191.530909 189.872982 
L 191.738053 194.538616 
L 191.945197 204.459792 
L 192.083293 196.951875 
L 192.290437 202.100161 
L 192.428533 199.043366 
L 192.635677 206.658539 
L 193.049965 194.806756 
L 193.119013 194.860384 
L 193.395205 202.421929 
L 193.533301 206.444027 
L 193.671397 199.633274 
L 194.016637 178.396594 
L 194.223781 182.418693 
L 194.499973 185.207348 
L 194.638069 178.182083 
L 194.845214 163.380761 
L 195.052358 170.191514 
L 195.397598 160.002198 
L 195.535694 148.043159 
L 195.604742 148.150415 
L 195.67379 148.793951 
L 195.742838 148.311299 
L 195.880934 146.595203 
L 196.01903 148.740323 
L 196.088078 147.292367 
L 196.226174 139.462682 
L 196.295222 139.945334 
L 196.36427 143.270269 
L 196.433318 142.519477 
L 196.571414 133.563605 
L 196.640462 134.207141 
L 196.778558 138.175611 
L 196.985702 127.718155 
L 197.123798 129.326995 
L 197.261894 129.005227 
L 197.469038 131.847509 
L 197.538086 131.57937 
L 197.74523 134.046257 
L 197.952374 126.484712 
L 198.021422 127.074619 
L 198.228566 129.273367 
L 198.297614 130.882206 
L 198.366662 130.399554 
L 198.504758 129.273367 
L 198.573806 129.487878 
L 199.057142 137.317563 
L 199.12619 136.566772 
L 199.264286 133.080953 
L 199.333334 133.349093 
L 199.747622 141.178778 
L 199.81667 141.071522 
L 199.954766 137.639331 
L 200.023814 137.961099 
L 200.369054 143.967433 
L 200.576198 150.93907 
L 200.714295 146.380692 
L 200.921439 140.85701 
L 201.335727 149.651998 
L 201.404775 151.475349 
L 201.473823 150.778186 
L 201.680967 145.576272 
L 201.819063 146.219808 
L 201.957159 144.986364 
L 202.095255 147.453251 
L 202.164303 147.238739 
L 202.302399 146.005296 
L 202.440495 147.882275 
L 202.578591 145.844412 
L 202.716687 143.109385 
L 202.785735 143.109385 
L 202.854783 142.251337 
L 203.061927 136.995795 
L 203.269071 141.929569 
L 203.614311 135.708724 
L 203.959551 125.626664 
L 204.028599 125.19764 
L 204.235743 127.074619 
L 204.442887 124.071453 
L 204.788127 114.472045 
L 204.857175 114.954696 
L 205.064319 121.282798 
L 205.478607 105.83794 
L 205.616703 106.9105 
L 205.754799 109.001991 
L 206.100039 97.418348 
L 206.238135 98.651791 
L 206.376231 100.475142 
L 206.44528 100.314258 
L 206.928616 88.945127 
L 207.066712 95.005089 
L 207.204808 89.159639 
L 207.411952 98.973559 
L 207.688144 84.225865 
L 207.757192 85.995588 
L 207.895288 89.856803 
L 208.033384 87.765311 
L 208.102432 88.087079 
L 208.17148 88.033451 
L 208.378624 83.099677 
L 208.654816 87.229032 
L 208.723864 86.531868 
L 208.931008 78.648555 
L 209.069104 81.812606 
L 209.276248 85.244797 
L 209.414344 82.77791 
L 209.483392 83.367817 
L 209.55244 84.011353 
L 209.690536 77.897764 
L 209.828632 84.279493 
L 209.89768 82.724282 
L 210.035776 78.380415 
L 210.173872 80.579162 
L 210.311968 79.238463 
L 210.450064 81.544466 
L 210.58816 76.557064 
L 210.726256 69.960823 
L 210.795304 70.068079 
L 211.002448 80.471906 
L 211.071496 79.184835 
L 211.209592 82.938793 
L 211.485784 64.705281 
L 211.554832 65.77784 
L 211.831024 72.642222 
L 211.96912 66.421376 
L 212.107216 60.629555 
L 212.245313 64.598025 
L 212.452457 52.156334 
L 212.521505 55.105873 
L 212.659601 59.825135 
L 212.866745 52.692614 
L 212.935793 51.888194 
L 213.211985 43.52223 
L 213.626273 66.475004 
L 213.764369 78.702183 
L 213.833417 76.342552 
L 214.178657 36.228825 
L 214.247705 38.320316 
L 214.385801 57.8409 
L 214.523897 87.5508 
L 214.592945 86.800008 
L 214.938185 48.509632 
L 215.007233 51.72731 
L 215.283425 105.945196 
L 215.352473 105.623428 
L 215.697713 62.935558 
L 215.766761 64.061745 
L 216.112001 127.020991 
L 216.181049 123.535173 
L 216.457241 105.891568 
L 216.595337 111.897902 
L 216.871529 148.847579 
L 216.940577 146.809715 
L 217.216769 126.53834 
L 217.285817 127.128247 
L 217.423913 141.715057 
L 217.631057 171.210445 
L 217.700105 169.387094 
L 217.838201 172.175749 
L 218.045345 158.125219 
L 218.114394 160.163082 
L 218.390586 178.986502 
L 218.59773 176.305103 
L 218.735826 177.860315 
L 218.804874 176.734127 
L 218.94297 185.69 
L 219.081066 190.141122 
L 219.219162 192.500753 
L 219.28821 192.178985 
L 219.564402 185.15372 
L 219.840594 199.74053 
L 219.909642 197.327271 
L 220.32393 179.951806 
L 220.392978 180.917109 
L 220.531074 190.731029 
L 220.66917 201.027601 
L 220.738218 200.384066 
L 220.945362 187.245211 
L 221.221554 170.674166 
L 221.35965 175.768824 
L 221.497746 180.219946 
L 221.566794 180.059062 
L 221.635842 180.059062 
L 221.70489 178.825618 
L 221.912034 161.02113 
L 222.05013 161.932805 
L 222.119178 161.825549 
L 222.257274 167.188347 
L 222.326322 169.76249 
L 222.39537 168.475419 
L 222.809658 144.128316 
L 222.878706 145.89804 
L 223.08585 151.636233 
L 223.154898 150.93907 
L 223.500138 136.405888 
L 223.914427 141.446918 
L 223.983475 140.159846 
L 224.190619 126.591968 
L 224.328715 130.667694 
L 224.397763 129.43425 
L 224.466811 129.756018 
L 224.673955 133.724489 
L 224.743003 133.885373 
L 224.950147 128.737087 
L 225.019195 130.23867 
L 225.088243 130.828578 
L 225.157291 129.756018 
L 225.364435 134.260769 
L 225.571579 130.882206 
L 225.709675 128.683459 
L 225.985867 132.973697 
L 226.193011 141.071522 
L 226.262059 141.071522 
L 226.469203 134.153513 
L 226.538251 135.2797 
L 226.952539 145.522644 
L 227.021587 145.469016 
L 227.159683 142.197709 
L 227.297779 139.087287 
L 227.366827 139.140915 
L 227.435875 139.677194 
L 227.573971 145.415388 
L 227.712067 152.601537 
L 227.781115 152.065257 
L 228.126355 145.147248 
L 228.264451 143.270269 
L 228.333499 144.55734 
L 228.471595 150.778186 
L 228.540643 150.241906 
L 228.678739 148.311299 
L 228.747787 149.06209 
L 228.954931 147.721391 
L 229.162075 148.901207 
L 229.231123 148.257671 
L 229.369219 145.039992 
L 229.507315 147.238739 
L 229.645411 144.879108 
L 229.783508 146.916971 
L 230.197796 139.569938 
L 230.335892 137.853843 
L 230.473988 139.998962 
L 230.543036 139.730822 
L 230.612084 138.443751 
L 230.681132 138.497379 
L 230.75018 138.282867 
L 230.957324 127.718155 
L 231.09542 128.951599 
L 231.371612 125.46578 
L 231.509708 122.248101 
L 231.647804 117.582467 
L 231.716852 118.011491 
L 231.7859 118.494143 
L 232.062092 110.449946 
L 232.269236 116.402652 
L 232.752572 100.367886 
L 232.890668 98.759047 
L 233.028764 99.885235 
L 233.16686 97.36472 
L 233.304956 101.225934 
L 233.719244 90.178571 
L 233.926388 93.718017 
L 234.20258 86.370984 
L 234.271628 86.049216 
L 234.616868 88.730615 
L 234.685916 87.711684 
L 234.824012 80.579162 
L 235.031156 90.768478 
L 235.100204 88.891499 
L 235.307348 86.74638 
L 235.445444 75.967156 
L 235.652589 86.692752 
L 235.721637 85.298425 
L 235.790685 85.244797 
L 235.928781 90.553966 
L 235.997829 90.500338 
L 236.204973 82.938793 
L 236.343069 87.926195 
L 236.481165 83.421445 
L 236.550213 84.118609 
L 236.619261 85.834704 
L 236.688309 85.030285 
L 236.757357 82.938793 
L 236.826405 82.992421 
L 237.033549 90.875734 
L 237.240693 80.525534 
L 237.309741 82.617026 
L 237.447837 87.229032 
L 237.654981 84.172237 
L 237.793077 85.727448 
L 238.000221 77.307856 
L 238.138317 84.279493 
L 238.207365 84.172237 
L 238.414509 81.544466 
L 238.759749 76.235296 
L 238.897845 77.039716 
L 238.966893 76.342552 
L 239.104989 77.790508 
L 239.312133 69.639055 
L 239.381181 71.194266 
L 239.450229 71.998686 
L 239.657373 65.027049 
L 239.795469 70.443475 
L 240.278805 56.607456 
L 240.347853 56.661084 
L 240.554997 59.664251 
L 240.762141 53.497033 
L 240.900237 49.153167 
L 241.038333 62.07751 
L 241.245477 91.143874 
L 241.314526 84.547633 
L 241.590718 39.071107 
L 241.659766 39.929155 
L 241.728814 42.556926 
L 241.86691 65.295189 
L 242.074054 89.535035 
L 242.21215 77.897764 
L 242.419294 51.566426 
L 242.488342 52.907126 
L 242.764534 102.942029 
L 242.833582 102.030354 
L 242.90263 101.386818 
L 243.040726 84.386749 
L 243.24787 69.370915 
L 243.385966 93.396249 
L 243.59311 124.232337 
L 243.662158 125.412152 
L 243.800254 113.024089 
L 243.93835 102.459377 
L 244.076446 111.254366 
L 244.421686 144.181944 
L 244.559782 134.582536 
L 244.697878 124.125081 
L 244.766926 125.73392 
L 245.112166 162.951737 
L 245.181214 161.664665 
L 245.250262 161.664665 
L 245.388358 166.223043 
L 245.526454 160.055826 
L 245.595502 160.538478 
L 245.802646 171.532213 
L 245.871694 171.317701 
L 245.940742 170.406026 
L 246.147886 172.497517 
L 246.216934 171.746725 
L 246.285982 173.462821 
L 246.562174 188.425026 
L 246.838366 186.387163 
L 246.976462 179.254642 
L 247.04551 179.951806 
L 247.321703 193.09066 
L 247.390751 193.305172 
L 247.528847 190.677401 
L 247.805039 179.469154 
L 247.874087 179.630038 
L 247.943135 180.434458 
L 248.150279 195.074896 
L 248.288375 191.910845 
L 248.426471 186.816187 
L 248.702663 170.352398 
L 249.116951 176.680499 
L 249.185999 175.715196 
L 249.462191 162.308201 
L 249.531239 163.595273 
L 249.600287 164.506948 
L 249.669335 164.024296 
L 249.738383 163.273505 
L 249.876479 164.18518 
L 249.945527 162.469085 
L 250.152671 151.582605 
L 250.497911 150.241906 
L 250.566959 150.724558 
L 250.636007 150.349162 
L 250.774103 142.519477 
L 250.912199 136.405888 
L 251.119343 146.916971 
L 251.257439 143.860177 
L 251.326487 143.967433 
L 251.395535 143.752921 
L 251.602679 133.885373 
L 251.671727 134.153513 
L 251.740775 134.528908 
L 251.878871 132.866441 
L 252.016967 138.497379 
L 252.086015 141.178778 
L 252.155063 140.374358 
L 252.362207 133.724489 
L 252.500303 134.957932 
L 252.569351 134.582536 
L 252.845543 138.121983 
L 252.914591 139.033659 
L 252.98364 138.282867 
L 253.190784 130.935834 
L 253.32888 133.080953 
L 253.67412 143.967433 
L 253.812216 142.894873 
L 254.01936 138.014727 
L 254.088408 138.282867 
L 254.433648 147.506879 
L 254.502696 147.131483 
L 254.640792 141.178778 
L 254.70984 141.607802 
L 254.847936 143.270269 
L 254.986032 141.661429 
L 255.193176 150.67093 
L 255.262224 150.456418 
L 255.40032 149.491114 
L 255.469368 149.920138 
L 255.74556 144.82548 
L 255.952704 146.595203 
L 256.021752 146.648831 
L 256.159848 147.024227 
L 256.297944 146.327064 
L 256.43604 145.6299 
L 256.643184 147.560507 
L 256.712232 147.399623 
L 257.402712 137.800215 
L 257.47176 139.355426 
L 257.540808 139.194542 
L 257.678904 135.386956 
L 257.817 136.727656 
L 258.231288 128.361691 
L 258.300336 128.576203 
L 258.438432 129.595134 
L 258.50748 129.380623 
L 258.645576 123.856941 
L 258.852721 115.222836 
L 258.990817 118.440515 
L 259.059865 119.942098 
L 259.197961 114.686557 
L 259.336057 109.377387 
L 259.405105 109.431015 
L 259.474153 109.270131 
L 259.543201 109.752783 
L 259.681297 113.828509 
L 259.750345 112.970461 
L 259.957489 102.620261 
L 260.026537 102.727517 
L 260.095585 102.191238 
L 260.302729 97.311092 
L 260.440825 99.670723 
L 260.509873 99.348955 
L 260.786065 94.254297 
L 260.924161 98.169139 
L 260.993209 97.740115 
L 261.131305 95.326856 
L 261.200353 94.897833 
L 261.338449 89.159639 
L 261.545593 94.307925 
L 261.890833 84.923029 
L 262.097977 95.970392 
L 262.167025 94.147041 
L 262.236073 92.32369 
L 262.305121 93.610761 
L 262.374169 92.699085 
L 262.512265 84.279493 
L 262.581313 84.869401 
L 262.719409 89.964059 
L 262.788457 89.588663 
L 263.202745 79.774743 
L 263.409889 96.613928 
L 263.617033 82.938793 
L 263.686081 83.260561 
L 263.755129 82.992421 
L 263.893225 81.651722 
L 264.100369 84.923029 
L 264.307513 79.023951 
L 264.376561 79.506603 
L 264.721802 82.724282 
L 264.928946 76.93246 
L 264.997994 77.575996 
L 265.067042 77.46874 
L 265.13609 76.93246 
L 265.205138 77.146972 
L 265.343234 79.881999 
L 265.412282 79.399347 
L 265.619426 72.42771 
L 265.757522 75.430877 
L 265.82657 76.986088 
L 265.895618 75.645388 
L 266.033714 69.478171 
L 266.17181 72.15957 
L 266.309906 67.92296 
L 266.448002 71.945058 
L 266.51705 69.907195 
L 266.586098 70.497103 
L 266.655146 70.979754 
L 266.793242 61.54123 
L 266.86229 62.07751 
L 266.931338 63.847233 
L 267.069434 60.200531 
L 267.20753 65.348817 
L 267.276578 64.115373 
L 267.55277 48.348748 
L 267.759914 57.465504 
L 267.89801 53.06801 
L 268.036106 48.29512 
L 268.105154 51.030147 
L 268.381346 86.960892 
L 268.450394 83.099677 
L 268.726586 38.105804 
L 268.795634 37.784036 
L 268.864682 41.967018 
L 269.140874 94.897833 
L 269.209922 90.822106 
L 269.555162 55.642153 
L 269.62421 58.859831 
L 269.900402 108.841107 
L 269.96945 104.926264 
L 270.107546 94.361553 
L 270.31469 68.459239 
L 270.383739 71.247894 
L 270.728979 129.756018 
L 270.798027 129.112483 
L 270.867075 125.73392 
L 271.074219 101.172306 
L 271.143267 103.049285 
L 271.557555 150.188278 
L 271.695651 138.658263 
L 271.833747 122.301729 
L 271.902795 123.535173 
L 272.317083 166.544811 
L 272.386131 166.759323 
L 272.524227 163.166249 
L 272.662323 159.894942 
L 273.076611 173.141053 
L 273.145659 172.819285 
L 273.214707 173.194681 
L 273.283755 172.819285 
L 273.352803 171.210445 
L 273.421851 172.712029 
L 273.767091 189.604842 
L 274.043283 180.863481 
L 274.181379 177.216779 
L 274.457571 192.715265 
L 274.595667 190.46289 
L 274.871859 178.128455 
L 274.940907 178.611106 
L 275.148051 183.705764 
L 275.355195 193.787824 
L 275.562339 182.257809 
L 275.838531 169.440722 
L 276.045675 174.320868 
L 276.114723 174.26724 
L 276.183772 174.696264 
L 276.25282 176.197847 
L 276.321868 174.106356 
L 276.529012 161.718293 
L 276.59806 161.771921 
L 276.736156 162.576341 
L 276.9433 162.200945 
L 277.012348 162.522713 
L 277.081396 161.342897 
L 277.357588 149.920138 
L 277.426636 149.705626 
L 277.63378 147.506879 
L 277.840924 149.973766 
L 278.048068 139.677194 
L 278.117116 141.071522 
L 278.186164 144.55734 
L 278.255212 143.806549 
L 278.393308 139.945334 
L 278.531404 143.163013 
L 278.738548 133.939001 
L 278.807596 136.35226 
L 278.876644 139.51631 
L 278.945692 139.409054 
L 279.083788 131.954765 
L 279.221884 138.068355 
L 279.290932 137.317563 
L 279.429028 129.916902 
L 279.636172 139.409054 
L 279.774268 138.068355 
L 279.843316 137.907471 
L 279.912364 137.424819 
L 280.188556 129.380623 
L 280.671892 142.251337 
L 280.948084 136.191376 
L 281.08618 137.263935 
L 281.155228 137.210307 
L 281.293324 140.427986 
L 281.362372 142.465849 
L 281.43142 142.358593 
L 281.500468 142.251337 
L 281.638564 144.55734 
L 281.77666 139.24817 
L 281.845708 139.677194 
L 282.052853 143.216641 
L 282.190949 144.610968 
L 282.329045 146.005296 
L 282.398093 145.576272 
L 282.536189 143.645665 
L 282.674285 145.844412 
L 282.743333 144.55734 
L 282.812381 144.718224 
L 282.950477 146.219808 
L 283.019525 146.058924 
L 283.088573 146.219808 
L 283.295717 142.733989 
L 283.433813 147.024227 
L 283.571909 142.787617 
L 283.779053 148.150415 
L 284.262389 137.103051 
L 284.331437 137.853843 
L 284.469533 143.645665 
L 284.814773 137.049423 
L 285.021917 131.418486 
L 285.298109 134.207141 
L 285.436205 130.077786 
L 285.643349 124.125081 
L 285.712397 123.749685 
L 285.850493 124.393221 
L 285.919541 124.339593 
L 286.057637 121.550938 
L 286.333829 110.718086 
L 286.540973 115.169208 
L 286.679069 114.364789 
L 286.748117 114.150277 
L 286.886213 108.412083 
L 287.024309 102.673889 
L 287.093357 102.781145 
L 287.162405 102.566633 
L 287.369549 99.402583 
L 287.438597 100.314258 
L 287.507645 100.904166 
L 287.714789 93.342621 
L 287.783837 93.932529 
L 287.852886 95.112344 
L 288.06003 91.733782 
L 288.267174 96.077648 
L 288.75051 85.512936 
L 289.026702 91.51927 
L 289.09575 90.661222 
L 289.44099 78.541299 
L 289.510038 80.740046 
L 289.648134 95.809508 
L 289.855278 81.758978 
L 289.924326 82.938793 
L 289.993374 84.440377 
L 290.062422 83.743213 
L 290.200518 82.295258 
L 290.269566 82.402514 
L 290.407662 80.954558 
L 290.545758 84.654889 
L 290.752902 81.97349 
L 290.890998 82.670654 
L 290.960046 82.456142 
L 291.16719 89.374151 
L 291.236238 87.5508 
L 291.581478 72.42771 
L 291.650526 75.162737 
L 291.85767 81.812606 
L 292.064814 87.818939 
L 292.410054 73.822037 
L 292.54815 79.613859 
L 292.686246 75.806272 
L 292.824342 83.957725 
L 292.89339 83.904097 
L 293.169582 65.616957 
L 293.23863 67.172168 
L 293.514822 76.825204 
L 293.58387 77.951392 
L 293.791015 74.411945 
L 294.136255 63.793605 
L 294.205303 63.632721 
L 294.274351 64.008117 
L 294.412447 71.408778 
L 294.481495 69.585427 
L 294.619591 64.598025 
L 294.688639 66.528632 
L 294.826735 58.055412 
L 294.895783 58.591691 
L 294.964831 61.487602 
L 295.033879 61.00495 
L 295.171975 56.23206 
L 295.241023 58.162668 
L 295.586263 90.393082 
L 295.655311 84.976657 
L 295.931503 41.64525 
L 296.276743 83.153305 
L 296.414839 101.011422 
L 296.552935 79.399347 
L 296.691031 66.367748 
L 296.829127 63.096442 
L 296.898175 67.65482 
L 297.174367 118.815911 
L 297.588655 73.285757 
L 297.657703 79.077579 
L 297.933895 130.024158 
L 298.002943 130.131414 
L 298.279135 111.41525 
L 298.348183 109.055619 
L 298.417231 112.487809 
L 298.762471 145.522644 
L 298.900567 138.443751 
L 299.107711 130.667694 
L 299.245807 140.159846 
L 299.522 166.652067 
L 299.660096 160.645734 
L 299.729144 161.503781 
L 299.798192 163.327133 
L 299.86724 162.737225 
L 299.936288 160.75299 
L 300.005336 160.967502 
L 300.21248 172.926541 
L 300.350576 169.708862 
L 300.419624 169.923374 
L 300.488672 169.76249 
L 300.55772 169.869746 
L 300.695816 172.658401 
L 300.972008 187.620607 
L 301.041056 185.475488 
L 301.386296 176.144219 
L 301.455344 177.055895 
L 301.662488 192.661637 
L 301.800584 182.418693 
L 301.869632 182.686833 
L 301.93868 184.510184 
L 302.145824 170.995934 
L 302.214872 173.462821 
L 302.352968 181.721529 
L 302.422016 181.667901 
L 302.62916 192.071729 
L 302.698208 188.371398 
L 302.905352 169.440722 
L 303.112496 165.579508 
L 303.388688 171.907609 
L 303.457736 171.210445 
L 303.872024 156.140984 
L 303.941072 157.428055 
L 304.01012 159.036894 
L 304.079168 158.393359 
L 304.217264 155.229308 
L 304.286312 155.71196 
L 304.35536 155.068424 
L 304.631552 142.733989 
L 304.838696 141.822313 
L 304.976792 147.345995 
L 305.04584 150.295534 
L 305.114888 148.043159 
L 305.322033 129.541506 
L 305.529177 135.655096 
L 305.598225 134.153513 
L 305.667273 134.368024 
L 305.805369 139.730822 
L 305.874417 138.014727 
L 306.012513 127.879039 
L 306.081561 128.790715 
L 306.150609 130.23867 
L 306.288705 126.109316 
L 306.357753 126.967363 
L 306.564897 143.109385 
L 306.772041 124.714988 
L 306.910137 131.418486 
L 307.048233 126.2702 
L 307.255377 135.54784 
L 307.393473 134.957932 
L 307.807761 130.399554 
L 308.014905 142.626733 
L 308.083953 140.910638 
L 308.153001 138.926403 
L 308.222049 139.838078 
L 308.291097 140.32073 
L 308.429193 134.314396 
L 308.498241 134.74342 
L 308.843481 147.453251 
L 308.912529 146.380692 
L 309.119673 141.768685 
L 309.188721 141.875941 
L 309.326817 143.645665 
L 309.395865 143.538409 
L 309.464913 144.181944 
L 309.672057 149.86651 
L 309.741105 149.06209 
L 309.948249 144.879108 
L 310.086345 143.270269 
L 310.155393 144.128316 
L 310.362537 152.172513 
L 310.638729 146.219808 
L 310.707777 146.327064 
L 310.776825 146.16618 
L 310.914921 142.090453 
L 311.053017 148.847579 
L 311.122066 148.364927 
L 311.260162 142.733989 
L 311.398258 144.450084 
L 311.605402 137.746587 
L 311.67445 139.140915 
L 311.743498 140.481614 
L 311.812546 140.267102 
L 311.950642 138.765519 
L 312.01969 138.872775 
L 312.088738 138.443751 
L 312.36493 129.809646 
L 312.433978 131.096718 
L 312.503026 130.828578 
L 312.848266 123.320661 
L 312.986362 124.714988 
L 313.676842 110.07455 
L 313.883986 108.894735 
L 314.505418 97.632859 
L 314.574466 98.222767 
L 314.712562 95.702252 
L 314.78161 96.077648 
L 314.850658 98.061883 
L 314.919706 97.954627 
L 315.12685 89.588663 
L 315.264946 95.2196 
L 315.333994 94.468809 
L 315.610186 87.604428 
L 315.679234 86.800008 
L 315.748282 87.01452 
L 315.886378 91.733782 
L 315.955426 91.51927 
L 316.093522 87.068148 
L 316.16257 87.175404 
L 316.231618 88.355219 
L 316.369714 84.869401 
L 316.50781 94.522437 
L 316.576858 94.307925 
L 316.784002 77.897764 
L 317.267339 86.317356 
L 317.405435 81.276326 
L 317.543531 86.692752 
L 317.612579 85.620192 
L 317.957819 78.005019 
L 318.372107 89.213267 
L 318.441155 88.408847 
L 318.648299 80.364651 
L 318.786395 71.837802 
L 318.855443 73.607525 
L 318.993539 79.399347 
L 319.062587 79.560231 
L 319.200683 85.566564 
L 319.269731 85.512936 
L 319.545923 76.610692 
L 319.684019 79.506603 
L 319.822115 71.784174 
L 320.098307 82.724282 
L 320.167355 82.348886 
L 320.443547 72.42771 
L 320.581643 66.796772 
L 320.719739 72.213198 
L 320.857835 75.484505 
L 321.064979 65.509701 
L 321.134027 67.493936 
L 321.203075 70.604359 
L 321.272123 68.727379 
L 321.410219 59.342483 
L 321.479267 59.771507 
L 321.548315 61.755742 
L 321.617363 60.951322 
L 321.686411 58.591691 
L 321.755459 59.610623 
L 321.824507 63.471837 
L 321.893555 63.310953 
L 322.169747 53.33615 
L 322.238795 53.979685 
L 322.584035 86.853636 
L 322.929276 44.755673 
L 322.998324 46.15 
L 323.205468 75.377249 
L 323.343564 96.184904 
L 323.412612 93.718017 
L 323.757852 54.194197 
L 323.895948 79.238463 
L 324.103092 114.311161 
L 324.51738 63.900861 
L 324.655476 90.393082 
L 324.86262 128.629831 
L 324.931668 130.667694 
L 325.069764 118.708655 
L 325.276908 101.118678 
L 325.345956 102.459377 
L 325.760244 150.885442 
L 325.829292 145.308132 
L 326.036436 122.140845 
L 326.105484 123.427917 
L 326.519772 165.311368 
L 326.58882 164.614204 
L 326.93406 155.17568 
L 327.072156 162.522713 
L 327.210252 171.264073 
L 327.2793 171.210445 
L 327.555492 168.314535 
L 327.693588 171.585841 
L 327.96978 184.831952 
L 328.31502 174.53538 
L 328.384068 175.018032 
L 328.660261 186.601675 
L 328.729309 185.42186 
L 328.936453 178.932874 
L 329.143597 171.424957 
L 329.350741 178.289339 
L 329.557885 187.459723 
L 329.695981 179.415526 
L 329.972173 163.488017 
L 330.041221 163.058993 
L 330.317413 170.83505 
L 330.524557 164.667832 
L 330.800749 153.405957 
L 331.076941 158.607871 
L 331.145989 158.178847 
L 331.284085 154.049492 
L 331.560277 138.711891 
L 331.629325 138.926403 
L 331.767421 137.961099 
L 331.974565 141.178778 
L 332.112661 140.481614 
L 332.250757 137.210307 
L 332.526949 127.557271 
L 332.734093 129.380623 
L 332.872189 134.582536 
L 332.941237 133.992629 
L 333.217429 126.2702 
L 333.424573 123.374289 
L 333.493621 123.481545 
L 333.562669 124.178709 
L 333.700765 130.614066 
L 333.838861 137.639331 
L 333.907909 137.478447 
L 334.046005 131.57937 
L 334.253149 121.282798 
L 334.460294 127.396387 
L 334.736486 137.317563 
L 334.805534 137.800215 
L 335.012678 131.954765 
L 335.081726 132.973697 
L 335.150774 134.421652 
L 335.219822 134.314396 
L 335.28887 134.47528 
L 335.496014 142.948501 
L 335.63411 138.872775 
L 335.703158 138.926403 
L 335.772206 139.409054 
L 335.910302 138.658263 
L 335.97935 139.140915 
L 336.255542 145.737156 
L 336.32459 145.6299 
L 336.393638 144.2892 
L 336.462686 144.82548 
L 336.600782 148.364927 
L 336.738878 144.932736 
L 336.807926 145.09362 
L 336.946022 144.664596 
L 337.153166 147.721391 
L 337.222214 147.024227 
L 337.291262 147.238739 
L 337.498406 147.828647 
L 337.636502 147.614135 
L 337.774598 148.096787 
L 337.912694 146.702459 
L 337.981742 147.185111 
L 338.119838 149.651998 
L 338.257934 146.648831 
L 338.39603 144.986364 
L 338.465078 145.6299 
L 339.017462 139.998962 
L 339.155558 141.929569 
L 339.224606 143.216641 
L 339.362702 140.213474 
L 339.77699 127.771783 
L 339.846038 128.308063 
L 339.984134 129.916902 
L 340.053182 129.756018 
L 340.536519 116.402652 
L 340.605567 116.831676 
L 340.743663 118.440515 
L 340.812711 118.386887 
L 340.950807 114.043021 
L 341.157951 106.749616 
L 341.296047 105.998824 
L 341.434143 102.727517 
L 341.641287 105.5698 
L 341.917479 97.311092 
L 341.986527 97.525604 
L 342.193671 94.361553 
L 342.262719 94.951461 
L 342.331767 94.736949 
L 342.607959 89.481407 
L 342.815103 92.377318 
L 342.884151 91.894666 
L 343.160343 89.213267 
L 343.298439 88.516103 
L 343.367487 88.730615 
L 343.436535 88.676987 
L 343.574631 85.620192 
L 343.643679 83.957725 
L 343.712727 84.279493 
L 343.850823 91.894666 
L 343.919871 91.626526 
L 344.057967 84.547633 
L 344.196063 87.497172 
L 344.334159 81.222698 
L 344.472255 89.964059 
L 344.541303 89.803175 
L 344.817495 82.402514 
L 344.886543 80.954558 
L 345.024639 91.143874 
L 345.093687 96.02402 
L 345.162735 93.503505 
L 345.300831 82.295258 
L 345.438927 89.159639 
L 345.507975 86.639124 
L 345.577023 82.992421 
L 345.646071 84.923029 
L 345.784167 92.967225 
L 345.922263 84.708517 
L 346.06036 78.594927 
L 346.336552 86.585496 
L 346.4056 89.588663 
L 346.474648 88.301591 
L 346.681792 77.575996 
L 346.75084 77.46874 
L 346.819888 77.683252 
L 346.957984 86.370984 
L 347.027032 85.781076 
L 347.372272 70.657986 
L 347.510368 75.216365 
L 347.648464 71.516034 
L 347.78656 75.806272 
L 347.855608 75.269993 
L 348.1318 64.866165 
L 348.200848 66.04598 
L 348.269896 67.38668 
L 348.338944 66.957656 
L 348.546088 62.989186 
L 348.753232 54.784105 
L 348.82228 55.642153 
L 348.891328 55.695781 
L 349.029424 52.209962 
L 349.098472 52.907126 
L 349.236568 56.929224 
L 349.443712 78.326787 
L 349.581808 88.355219 
L 349.858 40.411807 
L 349.927048 42.503298 
L 349.996096 42.396042 
L 350.065144 44.916557 
L 350.341336 96.721184 
L 350.410384 91.090246 
L 350.755624 51.780938 
L 350.824672 55.213129 
L 351.100864 108.841107 
L 351.377056 79.935627 
L 351.515152 59.825135 
L 351.5842 64.812537 
L 351.929441 127.235503 
L 351.998489 127.932667 
L 352.136585 115.598232 
L 352.343729 95.005089 
L 352.758017 149.383858 
L 352.827065 147.185111 
L 353.103257 120.907402 
L 353.241353 137.800215 
L 353.517545 166.06216 
L 353.586593 166.115788 
L 353.793737 158.286103 
L 353.931833 155.604704 
L 354.000881 156.730891 
L 354.208025 171.210445 
L 354.346121 166.705695 
L 354.415169 167.831883 
L 354.484217 168.797186 
L 354.553265 168.260907 
L 354.622313 167.241975 
L 354.691361 169.601606 
L 354.898505 187.566979 
L 354.967553 187.030699 
L 355.381841 172.443889 
L 355.658033 186.762559 
L 355.727081 185.636372 
L 355.865177 186.708931 
L 356.003273 177.860315 
L 356.141369 169.869746 
L 356.555657 190.677401 
L 356.624705 189.336702 
L 356.969945 166.705695 
L 357.108041 164.9896 
L 357.315185 171.210445 
L 357.384233 170.995934 
L 357.591378 166.491183 
L 357.86757 155.819216 
L 358.143762 159.573174 
L 358.21281 159.894942 
L 358.281858 158.500615 
L 358.696146 139.409054 
L 358.765194 139.569938 
L 358.972338 143.323897 
L 359.041386 142.573105 
L 359.455674 132.330161 
L 359.524722 131.096718 
L 359.731866 136.298632 
L 359.93901 121.979962 
L 360.008058 124.232337 
L 360.077106 125.358524 
L 360.215202 120.907402 
L 360.28425 122.623497 
L 360.422346 133.402721 
L 360.491394 133.134581 
L 360.836634 120.853774 
L 360.905682 121.550938 
L 361.181874 134.421652 
L 361.596162 121.22917 
L 361.66521 121.658194 
L 362.079498 141.446918 
L 362.424738 131.150346 
L 362.493786 132.491045 
L 362.908074 144.181944 
L 363.115218 138.390123 
L 363.184266 139.838078 
L 363.391411 142.412221 
L 363.529507 147.560507 
L 363.667603 146.702459 
L 363.736651 147.131483 
L 363.805699 148.954835 
L 363.874747 148.740323 
L 364.081891 143.860177 
L 364.358083 149.544742 
L 364.427131 149.437486 
" clip-path="url(#p05f4bad612)" style="fill: none; stroke: #1f77b4; stroke-width: 1.5; stroke-linecap: square"/>
   </g>
   <g id="patch_3">
    <path d="M 44.845313 224.64 
L 44.845313 7.2 
" style="fill: none; stroke: #000000; stroke-width: 0.8; stroke-linejoin: miter; stroke-linecap: square"/>
   </g>
   <g id="patch_4">
    <path d="M 379.645313 224.64 
L 379.645313 7.2 
" style="fill: none; stroke: #000000; stroke-width: 0.8; stroke-linejoin: miter; stroke-linecap: square"/>
   </g>
   <g id="patch_5">
    <path d="M 44.845313 224.64 
L 379.645313 224.64 
" style="fill: none; stroke: #000000; stroke-width: 0.8; stroke-linejoin: miter; stroke-linecap: square"/>
   </g>
   <g id="patch_6">
    <path d="M 44.845313 7.2 
L 379.645313 7.2 
" style="fill: none; stroke: #000000; stroke-width: 0.8; stroke-linejoin: miter; stroke-linecap: square"/>
   </g>
  </g>
 </g>
 <defs>
  <clipPath id="p05f4bad612">
   <rect x="44.845313" y="7.2" width="334.8" height="217.44"/>
  </clipPath>
 </defs>
</svg>
