<?xml version="1.0" encoding="utf-8" standalone="no"?>
<!DOCTYPE svg PUBLIC "-//W3C//DTD SVG 1.1//EN"
  "http://www.w3.org/Graphics/SVG/1.1/DTD/svg11.dtd">
<svg xmlns:xlink="http://www.w3.org/1999/xlink" width="386.845313pt" height="251.71548pt" viewBox="0 0 386.845313 251.71548" xmlns="http://www.w3.org/2000/svg" version="1.1">
 <metadata>
  <rdf:RDF xmlns:dc="http://purl.org/dc/elements/1.1/" xmlns:cc="http://creativecommons.org/ns#" xmlns:rdf="http://www.w3.org/1999/02/22-rdf-syntax-ns#">
   <cc:Work>
    <dc:type rdf:resource="http://purl.org/dc/dcmitype/StillImage"/>
    <dc:date>2022-07-31T17:01:35.095120</dc:date>
    <dc:format>image/svg+xml</dc:format>
    <dc:creator>
     <cc:Agent>
      <dc:title>Matplotlib v3.5.2, https://matplotlib.org/</dc:title>
     </cc:Agent>
    </dc:creator>
   </cc:Work>
  </rdf:RDF>
 </metadata>
 <defs>
  <style type="text/css">*{stroke-linejoin: round; stroke-linecap: butt}</style>
 </defs>
 <g id="figure_1">
  <g id="patch_1">
   <path d="M 0 251.71548 
L 386.845313 251.71548 
L 386.845313 0 
L 0 0 
L 0 251.71548 
z
" style="fill: none"/>
  </g>
  <g id="axes_1">
   <g id="patch_2">
    <path d="M 44.845313 227.837355 
L 379.645313 227.837355 
L 379.645313 10.397355 
L 44.845313 10.397355 
z
" style="fill: #ffffff"/>
   </g>
   <g id="matplotlib.axis_1">
    <g id="xtick_1">
     <g id="line2d_1">
      <defs>
       <path id="mcb9a81fac2" d="M 0 0 
L 0 3.5 
" style="stroke: #000000; stroke-width: 0.8"/>
      </defs>
      <g>
       <use xlink:href="#mcb9a81fac2" x="60.063494" y="227.837355" style="stroke: #000000; stroke-width: 0.8"/>
      </g>
     </g>
     <g id="text_1">
      <!-- 0 -->
      <g transform="translate(56.882244 242.435793)scale(0.1 -0.1)">
       <defs>
        <path id="DejaVuSans-30" d="M 2034 4250 
Q 1547 4250 1301 3770 
Q 1056 3291 1056 2328 
Q 1056 1369 1301 889 
Q 1547 409 2034 409 
Q 2525 409 2770 889 
Q 3016 1369 3016 2328 
Q 3016 3291 2770 3770 
Q 2525 4250 2034 4250 
z
M 2034 4750 
Q 2819 4750 3233 4129 
Q 3647 3509 3647 2328 
Q 3647 1150 3233 529 
Q 2819 -91 2034 -91 
Q 1250 -91 836 529 
Q 422 1150 422 2328 
Q 422 3509 836 4129 
Q 1250 4750 2034 4750 
z
" transform="scale(0.015625)"/>
       </defs>
       <use xlink:href="#DejaVuSans-30"/>
      </g>
     </g>
    </g>
    <g id="xtick_2">
     <g id="line2d_2">
      <g>
       <use xlink:href="#mcb9a81fac2" x="129.095846" y="227.837355" style="stroke: #000000; stroke-width: 0.8"/>
      </g>
     </g>
     <g id="text_2">
      <!-- 1000 -->
      <g transform="translate(116.370846 242.435793)scale(0.1 -0.1)">
       <defs>
        <path id="DejaVuSans-31" d="M 794 531 
L 1825 531 
L 1825 4091 
L 703 3866 
L 703 4441 
L 1819 4666 
L 2450 4666 
L 2450 531 
L 3481 531 
L 3481 0 
L 794 0 
L 794 531 
z
" transform="scale(0.015625)"/>
       </defs>
       <use xlink:href="#DejaVuSans-31"/>
       <use xlink:href="#DejaVuSans-30" x="63.623047"/>
       <use xlink:href="#DejaVuSans-30" x="127.246094"/>
       <use xlink:href="#DejaVuSans-30" x="190.869141"/>
      </g>
     </g>
    </g>
    <g id="xtick_3">
     <g id="line2d_3">
      <g>
       <use xlink:href="#mcb9a81fac2" x="198.128197" y="227.837355" style="stroke: #000000; stroke-width: 0.8"/>
      </g>
     </g>
     <g id="text_3">
      <!-- 2000 -->
      <g transform="translate(185.403197 242.435793)scale(0.1 -0.1)">
       <defs>
        <path id="DejaVuSans-32" d="M 1228 531 
L 3431 531 
L 3431 0 
L 469 0 
L 469 531 
Q 828 903 1448 1529 
Q 2069 2156 2228 2338 
Q 2531 2678 2651 2914 
Q 2772 3150 2772 3378 
Q 2772 3750 2511 3984 
Q 2250 4219 1831 4219 
Q 1534 4219 1204 4116 
Q 875 4013 500 3803 
L 500 4441 
Q 881 4594 1212 4672 
Q 1544 4750 1819 4750 
Q 2544 4750 2975 4387 
Q 3406 4025 3406 3419 
Q 3406 3131 3298 2873 
Q 3191 2616 2906 2266 
Q 2828 2175 2409 1742 
Q 1991 1309 1228 531 
z
" transform="scale(0.015625)"/>
       </defs>
       <use xlink:href="#DejaVuSans-32"/>
       <use xlink:href="#DejaVuSans-30" x="63.623047"/>
       <use xlink:href="#DejaVuSans-30" x="127.246094"/>
       <use xlink:href="#DejaVuSans-30" x="190.869141"/>
      </g>
     </g>
    </g>
    <g id="xtick_4">
     <g id="line2d_4">
      <g>
       <use xlink:href="#mcb9a81fac2" x="267.160548" y="227.837355" style="stroke: #000000; stroke-width: 0.8"/>
      </g>
     </g>
     <g id="text_4">
      <!-- 3000 -->
      <g transform="translate(254.435548 242.435793)scale(0.1 -0.1)">
       <defs>
        <path id="DejaVuSans-33" d="M 2597 2516 
Q 3050 2419 3304 2112 
Q 3559 1806 3559 1356 
Q 3559 666 3084 287 
Q 2609 -91 1734 -91 
Q 1441 -91 1130 -33 
Q 819 25 488 141 
L 488 750 
Q 750 597 1062 519 
Q 1375 441 1716 441 
Q 2309 441 2620 675 
Q 2931 909 2931 1356 
Q 2931 1769 2642 2001 
Q 2353 2234 1838 2234 
L 1294 2234 
L 1294 2753 
L 1863 2753 
Q 2328 2753 2575 2939 
Q 2822 3125 2822 3475 
Q 2822 3834 2567 4026 
Q 2313 4219 1838 4219 
Q 1578 4219 1281 4162 
Q 984 4106 628 3988 
L 628 4550 
Q 988 4650 1302 4700 
Q 1616 4750 1894 4750 
Q 2613 4750 3031 4423 
Q 3450 4097 3450 3541 
Q 3450 3153 3228 2886 
Q 3006 2619 2597 2516 
z
" transform="scale(0.015625)"/>
       </defs>
       <use xlink:href="#DejaVuSans-33"/>
       <use xlink:href="#DejaVuSans-30" x="63.623047"/>
       <use xlink:href="#DejaVuSans-30" x="127.246094"/>
       <use xlink:href="#DejaVuSans-30" x="190.869141"/>
      </g>
     </g>
    </g>
    <g id="xtick_5">
     <g id="line2d_5">
      <g>
       <use xlink:href="#mcb9a81fac2" x="336.192899" y="227.837355" style="stroke: #000000; stroke-width: 0.8"/>
      </g>
     </g>
     <g id="text_5">
      <!-- 4000 -->
      <g transform="translate(323.467899 242.435793)scale(0.1 -0.1)">
       <defs>
        <path id="DejaVuSans-34" d="M 2419 4116 
L 825 1625 
L 2419 1625 
L 2419 4116 
z
M 2253 4666 
L 3047 4666 
L 3047 1625 
L 3713 1625 
L 3713 1100 
L 3047 1100 
L 3047 0 
L 2419 0 
L 2419 1100 
L 313 1100 
L 313 1709 
L 2253 4666 
z
" transform="scale(0.015625)"/>
       </defs>
       <use xlink:href="#DejaVuSans-34"/>
       <use xlink:href="#DejaVuSans-30" x="63.623047"/>
       <use xlink:href="#DejaVuSans-30" x="127.246094"/>
       <use xlink:href="#DejaVuSans-30" x="190.869141"/>
      </g>
     </g>
    </g>
   </g>
   <g id="matplotlib.axis_2">
    <g id="ytick_1">
     <g id="line2d_6">
      <defs>
       <path id="m2745ab634f" d="M 0 0 
L -3.5 0 
" style="stroke: #000000; stroke-width: 0.8"/>
      </defs>
      <g>
       <use xlink:href="#m2745ab634f" x="44.845313" y="200.026649" style="stroke: #000000; stroke-width: 0.8"/>
      </g>
     </g>
     <g id="text_6">
      <!-- −0.06 -->
      <g transform="translate(7.2 203.825867)scale(0.1 -0.1)">
       <defs>
        <path id="DejaVuSans-2212" d="M 678 2272 
L 4684 2272 
L 4684 1741 
L 678 1741 
L 678 2272 
z
" transform="scale(0.015625)"/>
        <path id="DejaVuSans-2e" d="M 684 794 
L 1344 794 
L 1344 0 
L 684 0 
L 684 794 
z
" transform="scale(0.015625)"/>
        <path id="DejaVuSans-36" d="M 2113 2584 
Q 1688 2584 1439 2293 
Q 1191 2003 1191 1497 
Q 1191 994 1439 701 
Q 1688 409 2113 409 
Q 2538 409 2786 701 
Q 3034 994 3034 1497 
Q 3034 2003 2786 2293 
Q 2538 2584 2113 2584 
z
M 3366 4563 
L 3366 3988 
Q 3128 4100 2886 4159 
Q 2644 4219 2406 4219 
Q 1781 4219 1451 3797 
Q 1122 3375 1075 2522 
Q 1259 2794 1537 2939 
Q 1816 3084 2150 3084 
Q 2853 3084 3261 2657 
Q 3669 2231 3669 1497 
Q 3669 778 3244 343 
Q 2819 -91 2113 -91 
Q 1303 -91 875 529 
Q 447 1150 447 2328 
Q 447 3434 972 4092 
Q 1497 4750 2381 4750 
Q 2619 4750 2861 4703 
Q 3103 4656 3366 4563 
z
" transform="scale(0.015625)"/>
       </defs>
       <use xlink:href="#DejaVuSans-2212"/>
       <use xlink:href="#DejaVuSans-30" x="83.789062"/>
       <use xlink:href="#DejaVuSans-2e" x="147.412109"/>
       <use xlink:href="#DejaVuSans-30" x="179.199219"/>
       <use xlink:href="#DejaVuSans-36" x="242.822266"/>
      </g>
     </g>
    </g>
    <g id="ytick_2">
     <g id="line2d_7">
      <g>
       <use xlink:href="#m2745ab634f" x="44.845313" y="168.522077" style="stroke: #000000; stroke-width: 0.8"/>
      </g>
     </g>
     <g id="text_7">
      <!-- −0.04 -->
      <g transform="translate(7.2 172.321296)scale(0.1 -0.1)">
       <use xlink:href="#DejaVuSans-2212"/>
       <use xlink:href="#DejaVuSans-30" x="83.789062"/>
       <use xlink:href="#DejaVuSans-2e" x="147.412109"/>
       <use xlink:href="#DejaVuSans-30" x="179.199219"/>
       <use xlink:href="#DejaVuSans-34" x="242.822266"/>
      </g>
     </g>
    </g>
    <g id="ytick_3">
     <g id="line2d_8">
      <g>
       <use xlink:href="#m2745ab634f" x="44.845313" y="137.017505" style="stroke: #000000; stroke-width: 0.8"/>
      </g>
     </g>
     <g id="text_8">
      <!-- −0.02 -->
      <g transform="translate(7.2 140.816724)scale(0.1 -0.1)">
       <use xlink:href="#DejaVuSans-2212"/>
       <use xlink:href="#DejaVuSans-30" x="83.789062"/>
       <use xlink:href="#DejaVuSans-2e" x="147.412109"/>
       <use xlink:href="#DejaVuSans-30" x="179.199219"/>
       <use xlink:href="#DejaVuSans-32" x="242.822266"/>
      </g>
     </g>
    </g>
    <g id="ytick_4">
     <g id="line2d_9">
      <g>
       <use xlink:href="#m2745ab634f" x="44.845313" y="105.512934" style="stroke: #000000; stroke-width: 0.8"/>
      </g>
     </g>
     <g id="text_9">
      <!-- 0.00 -->
      <g transform="translate(15.579688 109.312152)scale(0.1 -0.1)">
       <use xlink:href="#DejaVuSans-30"/>
       <use xlink:href="#DejaVuSans-2e" x="63.623047"/>
       <use xlink:href="#DejaVuSans-30" x="95.410156"/>
       <use xlink:href="#DejaVuSans-30" x="159.033203"/>
      </g>
     </g>
    </g>
    <g id="ytick_5">
     <g id="line2d_10">
      <g>
       <use xlink:href="#m2745ab634f" x="44.845313" y="74.008362" style="stroke: #000000; stroke-width: 0.8"/>
      </g>
     </g>
     <g id="text_10">
      <!-- 0.02 -->
      <g transform="translate(15.579688 77.807581)scale(0.1 -0.1)">
       <use xlink:href="#DejaVuSans-30"/>
       <use xlink:href="#DejaVuSans-2e" x="63.623047"/>
       <use xlink:href="#DejaVuSans-30" x="95.410156"/>
       <use xlink:href="#DejaVuSans-32" x="159.033203"/>
      </g>
     </g>
    </g>
    <g id="ytick_6">
     <g id="line2d_11">
      <g>
       <use xlink:href="#m2745ab634f" x="44.845313" y="42.50379" style="stroke: #000000; stroke-width: 0.8"/>
      </g>
     </g>
     <g id="text_11">
      <!-- 0.04 -->
      <g transform="translate(15.579688 46.303009)scale(0.1 -0.1)">
       <use xlink:href="#DejaVuSans-30"/>
       <use xlink:href="#DejaVuSans-2e" x="63.623047"/>
       <use xlink:href="#DejaVuSans-30" x="95.410156"/>
       <use xlink:href="#DejaVuSans-34" x="159.033203"/>
      </g>
     </g>
    </g>
    <g id="ytick_7">
     <g id="line2d_12">
      <g>
       <use xlink:href="#m2745ab634f" x="44.845313" y="10.999219" style="stroke: #000000; stroke-width: 0.8"/>
      </g>
     </g>
     <g id="text_12">
      <!-- 0.06 -->
      <g transform="translate(15.579688 14.798437)scale(0.1 -0.1)">
       <use xlink:href="#DejaVuSans-30"/>
       <use xlink:href="#DejaVuSans-2e" x="63.623047"/>
       <use xlink:href="#DejaVuSans-30" x="95.410156"/>
       <use xlink:href="#DejaVuSans-36" x="159.033203"/>
      </g>
     </g>
    </g>
   </g>
   <g id="line2d_13">
    <path d="M 60.063494 60.180886 
L 60.408656 57.633061 
L 61.029947 61.142329 
L 61.168012 62.247988 
L 61.237044 62.392205 
L 61.513174 65.036174 
L 61.789303 66.382194 
L 61.858335 66.28605 
L 61.9964 66.478339 
L 62.065433 66.430267 
L 62.755756 59.988597 
L 63.929306 36.962032 
L 64.205435 33.452764 
L 64.481565 31.241444 
L 64.688662 30.424218 
L 64.826727 29.847352 
L 65.171888 31.385661 
L 65.724147 36.337094 
L 66.276406 43.403701 
L 66.6906 56.767762 
L 67.104794 70.276039 
L 67.311891 78.688668 
L 67.86415 112.627614 
L 68.071247 123.684211 
L 68.554474 154.834971 
L 68.761571 165.795424 
L 69.175765 188.485484 
L 69.728023 201.368823 
L 69.935121 202.762916 
L 70.21125 200.40738 
L 70.418347 195.167514 
L 70.694476 182.716825 
L 72.213188 96.523439 
L 72.55835 81.86143 
L 73.110609 68.73773 
L 73.248673 67.872431 
L 73.317706 67.824359 
L 73.45577 68.112792 
L 73.593835 69.699173 
L 74.491256 85.803348 
L 75.112547 102.051738 
L 75.526741 109.550995 
L 75.940935 116.233026 
L 76.079 117.627118 
L 76.700291 125.607097 
L 76.97642 128.299138 
L 77.528679 137.336704 
L 78.14997 147.528003 
L 78.4261 152.239074 
L 78.771261 158.296167 
L 79.047391 163.439888 
L 79.254488 166.37229 
L 79.392553 165.074341 
L 79.461585 165.362774 
L 79.806747 169.689269 
L 79.875779 170.458424 
L 79.944811 170.218063 
L 80.911264 149.979683 
L 81.394491 130.895035 
L 81.877717 109.406779 
L 82.637073 86.764791 
L 82.775138 84.601543 
L 82.982235 81.140348 
L 83.189332 82.486368 
L 83.741591 94.215976 
L 84.086753 105.512934 
L 84.915141 134.981169 
L 85.329335 143.24958 
L 85.536432 145.316683 
L 85.605464 145.268611 
L 86.088691 139.548024 
L 86.36482 131.952622 
L 87.193208 99.888491 
L 87.676435 79.361678 
L 88.366758 61.478834 
L 88.573855 58.642576 
L 88.849985 56.911979 
L 89.057082 56.28704 
L 89.540308 59.123298 
L 89.747405 60.805824 
L 90.161599 62.344133 
L 90.230632 62.392205 
L 90.506761 63.017143 
L 90.782891 60.757751 
L 91.818376 45.711165 
L 92.094505 39.750217 
L 92.646764 31.866383 
L 92.922893 30.520362 
L 93.613217 29.270486 
L 93.682249 29.462774 
L 93.958379 31.626022 
L 94.027411 31.337589 
L 94.372573 34.606496 
L 94.786767 49.124288 
L 95.75322 99.311625 
L 97.340964 196.417391 
L 97.82419 206.031823 
L 97.893223 206.464472 
L 97.962255 206.224112 
L 98.307417 202.85906 
L 98.445482 199.782442 
L 98.928708 175.409856 
L 99.549999 139.163447 
L 100.033226 110.127861 
L 100.654517 81.092276 
L 101.275808 69.747246 
L 101.482905 69.314596 
L 101.62097 69.891462 
L 101.759034 71.910493 
L 102.173229 79.698183 
L 102.380326 82.774801 
L 103.553876 107.628109 
L 104.244199 116.377242 
L 104.727426 122.626623 
L 104.934523 124.645654 
L 105.210652 129.45287 
L 106.798396 158.632672 
L 107.005493 160.074837 
L 107.419687 166.324218 
L 107.48872 166.035785 
L 107.695817 164.641692 
L 107.902914 162.190012 
L 108.040978 162.478445 
L 108.179043 162.478445 
L 108.248075 162.14194 
L 108.455172 156.325208 
L 108.938399 145.124395 
L 109.145496 138.730797 
L 110.042917 108.493408 
L 110.73324 91.812368 
L 110.871305 91.139357 
L 111.078402 89.456832 
L 111.147434 89.456832 
L 111.285499 88.687677 
L 111.354531 88.735749 
L 111.630661 93.350677 
L 113.494534 142.865003 
L 113.632599 143.874518 
L 113.701631 143.778374 
L 113.839696 142.913075 
L 114.115825 140.749828 
L 114.530019 132.865993 
L 114.875181 119.405788 
L 116.531958 60.180886 
L 116.808087 56.623546 
L 116.946152 55.517886 
L 117.084216 55.469814 
L 117.360346 54.123793 
L 117.567443 54.700659 
L 117.636475 54.748731 
L 118.050669 58.594504 
L 118.188734 58.642576 
L 118.326799 59.075226 
L 118.464863 58.738721 
L 118.67196 58.979082 
L 118.810025 60.27703 
L 119.707446 51.335608 
L 120.190672 43.836351 
L 120.604866 37.490825 
L 121.157125 30.03964 
L 121.433255 28.549403 
L 121.502287 28.741692 
L 121.640352 28.164826 
L 121.847449 27.203383 
L 122.054546 26.722661 
L 122.123578 26.818806 
L 122.261643 27.443744 
L 122.330675 27.732177 
L 122.744869 36.337094 
L 123.504225 68.449297 
L 125.506163 201.320751 
L 126.058422 208.579647 
L 126.127454 208.435431 
L 126.334551 204.781947 
L 126.541649 199.638225 
L 126.955843 177.525031 
L 128.33649 93.110316 
L 128.750684 77.583008 
L 129.302943 67.728215 
L 129.371975 67.583998 
L 129.579072 68.305081 
L 129.855201 72.29507 
L 131.788107 108.060758 
L 132.202301 112.002675 
L 132.340366 113.87749 
L 132.823592 119.934582 
L 133.03069 121.617108 
L 133.306819 126.664685 
L 133.92811 140.317178 
L 134.963595 160.843991 
L 135.170692 161.949651 
L 135.308757 163.872537 
L 135.515854 165.458919 
L 135.791984 164.401331 
L 136.068113 161.517002 
L 136.27521 158.969177 
L 136.482307 155.556054 
L 136.965534 142.191993 
L 137.241663 134.500447 
L 137.655857 120.367231 
L 138.139084 107.628109 
L 138.760375 93.879471 
L 138.829407 93.975615 
L 138.898439 94.167904 
L 139.036504 92.677667 
L 139.105536 91.668151 
L 139.174569 92.148873 
L 139.312633 93.350677 
L 139.450698 92.629594 
L 139.79586 99.263553 
L 140.071989 105.561006 
L 140.279086 111.041232 
L 141.383604 139.067302 
L 141.728766 143.009219 
L 141.797798 142.913075 
L 142.14296 140.221034 
L 142.626186 131.039251 
L 143.523607 97.581027 
L 144.21393 72.72772 
L 144.628125 61.62305 
L 144.973286 56.960051 
L 145.180383 55.902463 
L 145.249416 55.854391 
L 145.66361 54.171865 
L 145.870707 54.94102 
L 146.215869 56.575473 
L 146.353933 56.238968 
L 146.630063 56.383185 
L 146.768127 55.950535 
L 146.906192 56.71969 
L 146.975224 56.623546 
L 147.941677 47.009113 
L 149.253292 28.789764 
L 149.322324 29.126269 
L 149.391357 28.885909 
L 149.529421 27.011094 
L 149.598454 27.107239 
L 149.667486 27.443744 
L 150.012648 25.328569 
L 150.150713 25.232424 
L 150.219745 24.992063 
L 150.288777 25.088208 
L 150.426842 26.4823 
L 150.633939 29.655063 
L 151.393295 59.123298 
L 152.359748 132.625633 
L 152.842974 169.92963 
L 153.533298 208.243142 
L 153.947492 214.059874 
L 154.016524 213.867585 
L 154.292654 210.839039 
L 154.637815 198.532566 
L 154.982977 177.71732 
L 156.570721 80.707698 
L 156.846851 74.07374 
L 157.399109 66.28605 
L 157.468142 66.237978 
L 157.675239 68.401225 
L 158.572659 85.947564 
L 159.124918 99.311625 
L 159.608145 105.65715 
L 160.022339 110.464366 
L 160.091371 110.560511 
L 160.229436 111.714242 
L 160.850727 120.463376 
L 161.126856 124.11686 
L 162.921698 162.911094 
L 163.197827 165.026269 
L 163.266859 165.074341 
L 163.335892 164.978197 
L 163.542989 163.728321 
L 163.88815 160.988208 
L 164.095248 158.536528 
L 164.923636 137.961643 
L 165.199765 130.55853 
L 165.682992 116.425314 
L 165.890089 112.819902 
L 166.166218 107.580037 
L 166.649445 101.234511 
L 166.856542 99.936563 
L 166.994606 99.263553 
L 167.132671 98.878975 
L 167.822995 106.618593 
L 168.168156 111.954603 
L 168.651383 124.886015 
L 168.927512 129.020221 
L 169.341706 136.904055 
L 169.7559 140.749828 
L 169.824933 140.605611 
L 169.962997 139.980673 
L 170.03203 140.076818 
L 170.170094 138.586581 
L 170.515256 132.865993 
L 171.136547 115.319655 
L 172.586227 65.949545 
L 172.862356 61.959556 
L 173.483647 56.094752 
L 173.828809 55.758247 
L 174.035906 55.133309 
L 174.104938 55.181381 
L 174.243003 55.037164 
L 174.381068 55.229453 
L 174.588165 55.902463 
L 175.140424 53.594999 
L 175.554618 51.479824 
L 177.142362 29.318558 
L 177.280427 28.982053 
L 177.694621 24.46327 
L 177.763653 24.46327 
L 177.901718 23.646043 
L 178.039782 22.780744 
L 178.177847 22.924961 
L 178.384944 22.203878 
L 178.453977 22.107734 
L 178.592041 23.261466 
L 178.868171 31.962527 
L 179.696559 73.544946 
L 180.248818 115.079294 
L 181.146238 187.139464 
L 181.4914 207.473988 
L 181.836562 215.117461 
L 181.974627 216.175049 
L 182.181724 215.502039 
L 182.319788 213.098431 
L 182.595918 205.166524 
L 182.941079 184.735855 
L 184.252694 96.859945 
L 184.804953 71.958565 
L 185.288179 64.651597 
L 185.495276 63.642081 
L 185.633341 64.411236 
L 185.840438 68.73773 
L 186.323665 79.890472 
L 186.599794 85.370698 
L 187.013988 96.811872 
L 188.049473 109.502923 
L 188.25657 110.272078 
L 189.223023 123.684211 
L 189.499153 130.750818 
L 189.844315 139.01923 
L 191.086897 167.141444 
L 191.363026 168.487465 
L 191.501091 167.333733 
L 191.77722 163.968682 
L 191.846253 163.92061 
L 191.915285 163.536032 
L 192.122382 158.776888 
L 192.398512 151.229559 
L 193.710126 112.531469 
L 194.538514 99.696202 
L 194.883676 98.686687 
L 195.021741 98.734759 
L 195.29787 100.224996 
L 196.402388 119.550005 
L 196.885614 129.837447 
L 197.023679 131.327684 
L 197.368841 137.048271 
L 197.714003 140.509467 
L 197.783035 140.365251 
L 198.404326 134.596591 
L 199.232714 111.66617 
L 200.682394 64.795813 
L 201.027555 60.517391 
L 201.234652 59.315587 
L 201.510782 57.536917 
L 201.717879 57.008123 
L 201.924976 57.344628 
L 202.063041 57.008123 
L 202.201105 56.383185 
L 202.270138 56.575473 
L 202.33917 56.28704 
L 202.408202 56.335113 
L 202.6153 57.056195 
L 202.891429 55.517886 
L 202.960461 55.181381 
L 203.167558 52.681628 
L 203.305623 52.200907 
L 203.443688 51.191391 
L 203.51272 51.287536 
L 203.650785 49.989587 
L 205.031432 29.414702 
L 205.85982 22.300022 
L 205.928852 22.540383 
L 206.066917 22.540383 
L 206.135949 22.300022 
L 206.343046 23.021105 
L 206.550144 21.771229 
L 206.619176 21.963517 
L 206.688208 22.300022 
L 206.826273 24.943991 
L 207.792726 68.112792 
L 208.344985 110.560511 
L 209.794664 210.069884 
L 210.208858 215.357822 
L 210.27789 215.213606 
L 210.484988 212.040843 
L 210.761117 205.599173 
L 211.106279 184.351278 
L 212.694023 82.630585 
L 212.970152 72.96808 
L 213.660476 63.305576 
L 213.79854 64.459308 
L 214.005637 68.593514 
L 214.419832 77.63108 
L 214.626929 80.659626 
L 214.834026 85.707203 
L 215.317252 97.340666 
L 215.455317 98.686687 
L 216.214673 109.070274 
L 216.352737 109.8875 
L 216.628867 114.358211 
L 216.974029 119.790366 
L 217.31919 123.780355 
L 218.354676 150.700765 
L 218.906934 165.026269 
L 219.390161 170.073846 
L 219.459193 170.266135 
L 219.528226 170.169991 
L 219.735323 167.958671 
L 220.425646 154.35425 
L 220.908873 139.884529 
L 221.323067 127.914561 
L 221.530164 124.741798 
L 222.01339 110.416294 
L 222.151455 110.416294 
L 222.28952 108.204975 
L 222.634681 101.378728 
L 222.703714 101.378728 
L 222.910811 103.013181 
L 222.979843 102.53246 
L 223.117908 102.195955 
L 223.255973 102.147882 
L 223.325005 102.436315 
L 223.601134 105.512934 
L 223.739199 106.666666 
L 224.084361 112.339181 
L 224.36049 116.713747 
L 224.774684 124.934087 
L 225.119846 132.625633 
L 225.879202 141.086333 
L 225.948234 140.942117 
L 226.293396 138.250075 
L 226.362428 138.34622 
L 226.500493 137.528993 
L 226.70759 133.250571 
L 227.605011 106.76281 
L 228.778561 68.930019 
L 229.261787 61.815339 
L 229.606949 60.132813 
L 229.883078 58.06571 
L 229.952111 58.257999 
L 230.159208 59.17137 
L 230.435337 58.306071 
L 230.573402 57.536917 
L 230.780499 58.06571 
L 230.987596 57.248484 
L 231.263725 54.844876 
L 232.299211 41.673103 
L 232.644372 35.952516 
L 233.541793 26.097723 
L 234.232116 21.57894 
L 234.370181 22.396167 
L 234.508246 21.386651 
L 234.577278 20.954002 
L 234.64631 21.194363 
L 234.784375 20.857858 
L 234.853408 20.280992 
L 234.92244 20.425208 
L 235.129537 24.511342 
L 235.336634 32.683609 
L 235.612763 43.019124 
L 235.888893 53.402711 
L 236.165022 75.996627 
L 236.579216 106.522449 
L 236.855346 130.222025 
L 237.407605 173.631186 
L 238.097928 212.761926 
L 238.512122 217.953719 
L 238.788252 215.069389 
L 239.133413 203.339782 
L 241.135351 73.929524 
L 241.825675 62.680638 
L 241.894707 62.392205 
L 241.96374 62.440277 
L 242.101804 63.738225 
L 243.13729 87.149368 
L 243.551484 97.725244 
L 244.586969 110.031717 
L 244.794066 112.77183 
L 245.277293 119.742293 
L 245.622454 124.11686 
L 247.486328 170.698784 
L 247.693425 172.237094 
L 247.762457 172.38131 
L 247.900522 171.564083 
L 248.866975 153.585095 
L 249.488266 131.712262 
L 249.626331 130.895035 
L 249.764395 125.847458 
L 250.040525 113.492912 
L 250.385687 109.743284 
L 250.799881 100.705718 
L 250.868913 101.138367 
L 250.937945 101.090295 
L 251.352139 99.023192 
L 251.904398 102.628604 
L 252.456657 113.44484 
L 252.594722 115.367727 
L 252.939884 122.77084 
L 253.354078 133.394787 
L 253.561175 134.404303 
L 254.044401 142.240065 
L 254.113433 142.095848 
L 254.389563 140.076818 
L 254.458595 140.317178 
L 254.527628 140.557539 
L 254.665692 139.548024 
L 254.872789 135.798395 
L 255.908275 105.609078 
L 256.460533 83.399739 
L 257.426986 61.62305 
L 257.496019 61.526906 
L 257.772148 59.363659 
L 257.910213 58.017638 
L 257.979245 58.161855 
L 258.186342 59.027154 
L 258.324407 59.748236 
L 258.393439 59.555947 
L 258.738601 58.113783 
L 258.876666 57.969566 
L 259.083763 58.257999 
L 259.497957 54.796803 
L 260.533442 40.952021 
L 260.809572 35.567939 
L 261.223766 31.866383 
L 261.499895 27.780249 
L 261.568927 27.539888 
L 261.63796 27.636032 
L 261.776024 28.405187 
L 262.121186 27.107239 
L 262.259251 26.91495 
L 262.466348 27.58796 
L 262.673445 29.414702 
L 262.742477 29.414702 
L 262.81151 29.030125 
L 263.018607 30.376146 
L 263.087639 30.087713 
L 263.225704 29.270486 
L 263.294736 29.462774 
L 263.501833 31.674094 
L 263.70893 37.202392 
L 264.537319 68.930019 
L 265.020545 102.77282 
L 265.296674 122.482407 
L 265.710868 156.517497 
L 266.05603 179.255629 
L 266.401192 201.272679 
L 266.677321 207.666276 
L 267.091516 212.617709 
L 267.22958 211.271689 
L 267.436677 207.473988 
L 267.643774 198.051844 
L 269.645713 74.217957 
L 270.336036 63.065215 
L 270.405068 62.969071 
L 270.681198 68.305081 
L 272.061845 101.042223 
L 272.545071 109.166418 
L 272.752168 112.002675 
L 272.821201 112.09882 
L 273.028298 113.060263 
L 273.09733 112.964119 
L 273.235395 114.358211 
L 273.511524 118.925067 
L 273.787654 120.655664 
L 273.856686 120.655664 
L 273.994751 121.472891 
L 274.27088 127.818416 
L 274.754106 138.682725 
L 275.030236 145.605116 
L 275.44443 158.15195 
L 276.341851 170.554568 
L 276.479915 170.073846 
L 276.687012 168.006743 
L 276.756045 168.247104 
L 276.894109 169.593125 
L 276.963142 169.208547 
L 277.239271 161.661218 
L 277.584433 152.431363 
L 277.79153 149.498961 
L 279.379274 96.908017 
L 279.586371 94.408264 
L 279.655403 94.504409 
L 279.724436 94.264048 
L 279.931533 91.620079 
L 280.000565 91.572007 
L 280.207662 92.485378 
L 281.03605 108.781841 
L 281.657342 128.683715 
L 282.278633 143.874518 
L 282.416697 144.018735 
L 282.692827 146.037766 
L 282.830892 146.181982 
L 283.107021 142.288137 
L 283.314118 138.538508 
L 284.280571 103.974624 
L 284.763797 85.995636 
L 285.592186 65.228462 
L 285.799283 64.699669 
L 286.075412 61.767267 
L 286.144444 61.767267 
L 286.282509 62.151844 
L 286.351541 62.199916 
L 286.558639 62.72871 
L 286.627671 62.632566 
L 286.696703 62.824854 
L 286.9038 61.719195 
L 286.972833 61.767267 
L 287.317994 60.565463 
L 287.663156 58.786793 
L 289.52703 30.424218 
L 289.734127 28.741692 
L 289.803159 28.789764 
L 289.872191 28.885909 
L 290.286386 30.183857 
L 290.355418 29.79928 
L 290.562515 31.097228 
L 290.976709 36.000588 
L 291.252838 37.731186 
L 291.321871 37.683114 
L 291.390903 37.683114 
L 291.598 39.36564 
L 291.667033 39.317568 
L 291.736065 39.606 
L 291.805097 39.461784 
L 291.87413 39.173351 
L 291.943162 39.461784 
L 292.426388 48.066701 
L 292.702518 54.844876 
L 292.909615 59.796308 
L 293.116712 68.978091 
L 294.22123 144.691745 
L 294.980585 195.552092 
L 295.256715 204.493514 
L 295.670909 212.713853 
L 295.739941 212.809998 
L 295.878006 211.463977 
L 296.016071 209.30073 
L 296.2922 198.820999 
L 297.051556 153.392806 
L 297.948976 91.379718 
L 298.363171 73.785307 
L 298.777365 65.949545 
L 298.915429 63.978586 
L 298.984462 64.315091 
L 299.122526 65.18039 
L 299.329624 69.122308 
L 299.950915 84.553471 
L 300.434141 98.97512 
L 300.779303 105.849439 
L 301.193497 111.954603 
L 301.538659 114.838933 
L 301.607691 114.742789 
L 301.745756 115.031222 
L 302.367047 120.030726 
L 302.505112 119.88651 
L 302.574144 120.078799 
L 302.988338 128.395282 
L 303.747694 145.989693 
L 304.161888 157.238579 
L 304.852212 171.612155 
L 305.128341 172.765887 
L 305.335438 177.140454 
L 305.473503 178.871052 
L 305.6806 172.862032 
L 305.956729 166.756867 
L 306.025762 166.901084 
L 306.163826 164.737836 
L 306.301891 160.747847 
L 307.75157 96.908017 
L 308.096732 88.351172 
L 308.165764 87.774306 
L 308.510926 81.044204 
L 308.579959 81.140348 
L 308.718023 82.678657 
L 309.132217 90.08177 
L 309.477379 98.734759 
L 310.3748 134.548519 
L 310.719961 143.105364 
L 311.203188 149.114384 
L 311.27222 148.922095 
L 311.686414 143.730302 
L 312.238673 126.135891 
L 312.7219 105.416789 
L 313.274158 83.351667 
L 313.89545 66.045689 
L 314.102547 64.074731 
L 314.378676 61.719195 
L 314.516741 61.190401 
L 314.654805 62.007628 
L 314.861903 62.920999 
L 314.930935 62.72871 
L 315.069 63.017143 
L 315.345129 62.584494 
L 315.414161 62.680638 
L 315.552226 62.440277 
L 315.621258 62.824854 
L 315.690291 62.680638 
L 315.96642 61.815339 
L 316.311582 58.49836 
L 316.587711 54.219938 
L 316.932873 50.229948 
L 317.485132 39.269495 
L 317.623197 37.731186 
L 318.037391 30.520362 
L 318.175455 31.049156 
L 318.451585 30.183857 
L 318.520617 30.135785 
L 318.589649 29.943496 
L 318.865779 30.712651 
L 320.384491 46.864897 
L 320.522555 46.576464 
L 320.66062 46.095742 
L 320.729652 46.288031 
L 320.798685 46.191887 
L 321.005782 49.556938 
L 321.83417 68.449297 
L 322.869655 133.298643 
L 323.283849 160.36327 
L 323.974173 198.676782 
L 324.319335 206.031823 
L 324.457399 207.714349 
L 324.526432 207.618204 
L 324.802561 204.205081 
L 325.078691 193.244628 
L 325.699982 158.776888 
L 326.045143 132.3372 
L 326.873532 83.351667 
L 327.149661 75.996627 
L 327.494823 71.573988 
L 327.70192 69.218452 
L 327.909017 71.62206 
L 328.806437 92.389234 
L 329.289664 104.503418 
L 329.496761 106.474377 
L 329.703858 109.406779 
L 329.77289 109.743284 
L 330.04902 112.339181 
L 330.256117 111.906531 
L 330.463214 111.185449 
L 330.532246 111.281593 
L 330.94644 113.589057 
L 331.015473 113.733273 
L 331.084505 113.637129 
L 331.291602 113.300624 
L 331.429667 115.175438 
L 332.465152 139.548024 
L 333.362573 168.872042 
L 333.914831 180.409361 
L 333.983864 180.505505 
L 334.190961 180.313217 
L 334.398058 181.27466 
L 334.46709 181.178516 
L 334.536123 180.649722 
L 334.74322 174.015763 
L 335.088381 161.997723 
L 335.295478 155.988703 
L 336.469028 95.369708 
L 336.883223 80.275049 
L 337.09032 78.400235 
L 337.435481 75.996627 
L 337.504514 76.236987 
L 337.573546 76.765781 
L 337.849675 84.168894 
L 338.539999 108.10883 
L 339.023225 129.500942 
L 339.851614 146.470415 
L 340.058711 145.364755 
L 340.265808 143.009219 
L 340.61097 135.221529 
L 340.887099 125.559025 
L 342.267746 75.131328 
L 342.750972 67.007132 
L 342.958069 65.372679 
L 343.234199 66.670627 
L 343.303231 66.622555 
L 343.648393 65.132318 
L 343.717425 65.420751 
L 343.85549 66.574483 
L 343.924522 66.430267 
L 343.993555 66.478339 
L 344.062587 66.478339 
L 344.131619 66.862916 
L 344.200652 66.622555 
L 344.407749 65.276535 
L 344.476781 65.084246 
L 344.890975 61.190401 
L 345.167105 57.152339 
L 346.064525 40.086722 
L 346.409687 33.837341 
L 346.754849 32.635537 
L 346.823881 32.875898 
L 346.961946 30.808795 
L 347.030978 31.1453 
L 347.583237 37.58697 
L 348.066463 45.711165 
L 348.687755 55.710175 
L 348.825819 56.238968 
L 348.963884 55.998608 
L 349.032916 56.190896 
L 349.170981 57.104267 
L 349.240013 57.152339 
L 349.378078 56.142824 
L 349.72324 52.441268 
L 349.792272 52.393195 
L 349.930337 52.873917 
L 350.137434 55.565958 
L 350.344531 57.921494 
L 350.413563 58.017638 
L 350.482596 58.450288 
L 350.758725 63.353648 
L 351.518081 105.224501 
L 352.484534 178.294186 
L 352.898728 200.311236 
L 353.312922 210.40639 
L 353.450987 211.560121 
L 353.658084 210.550606 
L 353.865181 204.253153 
L 354.210343 186.514525 
L 356.005184 79.121317 
L 356.350346 74.362173 
L 356.48841 73.641091 
L 356.557443 73.737235 
L 356.626475 73.785307 
L 356.76454 74.698678 
L 356.971637 79.746255 
L 358.145187 109.791356 
L 358.421316 112.09882 
L 358.490348 112.339181 
L 358.628413 113.204479 
L 358.697446 113.108335 
L 358.904543 113.973634 
L 358.973575 113.925562 
L 359.456801 109.310634 
L 359.525834 109.406779 
L 359.594866 109.743284 
L 359.663898 109.64714 
L 359.870996 108.829913 
L 360.216157 108.54148 
L 360.354222 110.272078 
L 360.768416 119.357716 
L 361.251643 132.865993 
L 362.563257 190.552587 
L 362.977451 196.032813 
L 363.184548 197.667267 
L 363.253581 197.763411 
L 363.322613 197.186545 
L 363.80584 177.909609 
L 364.151001 160.026765 
L 364.427131 141.759343 
L 364.427131 141.759343 
" clip-path="url(#p0e98d60406)" style="fill: none; stroke: #1f77b4; stroke-width: 1.5; stroke-linecap: square"/>
   </g>
   <g id="patch_3">
    <path d="M 44.845313 227.837355 
L 44.845313 10.397355 
" style="fill: none; stroke: #000000; stroke-width: 0.8; stroke-linejoin: miter; stroke-linecap: square"/>
   </g>
   <g id="patch_4">
    <path d="M 379.645313 227.837355 
L 379.645313 10.397355 
" style="fill: none; stroke: #000000; stroke-width: 0.8; stroke-linejoin: miter; stroke-linecap: square"/>
   </g>
   <g id="patch_5">
    <path d="M 44.845313 227.837355 
L 379.645313 227.837355 
" style="fill: none; stroke: #000000; stroke-width: 0.8; stroke-linejoin: miter; stroke-linecap: square"/>
   </g>
   <g id="patch_6">
    <path d="M 44.845313 10.397355 
L 379.645313 10.397355 
" style="fill: none; stroke: #000000; stroke-width: 0.8; stroke-linejoin: miter; stroke-linecap: square"/>
   </g>
  </g>
 </g>
 <defs>
  <clipPath id="p0e98d60406">
   <rect x="44.845313" y="10.397355" width="334.8" height="217.44"/>
  </clipPath>
 </defs>
</svg>
