<?xml version="1.0" encoding="utf-8" standalone="no"?>
<!DOCTYPE svg PUBLIC "-//W3C//DTD SVG 1.1//EN"
  "http://www.w3.org/Graphics/SVG/1.1/DTD/svg11.dtd">
<svg xmlns:xlink="http://www.w3.org/1999/xlink" width="386.845313pt" height="248.518125pt" viewBox="0 0 386.845313 248.518125" xmlns="http://www.w3.org/2000/svg" version="1.1">
 <metadata>
  <rdf:RDF xmlns:dc="http://purl.org/dc/elements/1.1/" xmlns:cc="http://creativecommons.org/ns#" xmlns:rdf="http://www.w3.org/1999/02/22-rdf-syntax-ns#">
   <cc:Work>
    <dc:type rdf:resource="http://purl.org/dc/dcmitype/StillImage"/>
    <dc:date>2022-07-31T17:01:35.389374</dc:date>
    <dc:format>image/svg+xml</dc:format>
    <dc:creator>
     <cc:Agent>
      <dc:title>Matplotlib v3.5.2, https://matplotlib.org/</dc:title>
     </cc:Agent>
    </dc:creator>
   </cc:Work>
  </rdf:RDF>
 </metadata>
 <defs>
  <style type="text/css">*{stroke-linejoin: round; stroke-linecap: butt}</style>
 </defs>
 <g id="figure_1">
  <g id="patch_1">
   <path d="M 0 248.518125 
L 386.845313 248.518125 
L 386.845313 0 
L 0 0 
L 0 248.518125 
z
" style="fill: none"/>
  </g>
  <g id="axes_1">
   <g id="patch_2">
    <path d="M 44.845313 224.64 
L 379.645313 224.64 
L 379.645313 7.2 
L 44.845313 7.2 
z
" style="fill: #ffffff"/>
   </g>
   <g id="matplotlib.axis_1">
    <g id="xtick_1">
     <g id="line2d_1">
      <defs>
       <path id="mb122153e39" d="M 0 0 
L 0 3.5 
" style="stroke: #000000; stroke-width: 0.8"/>
      </defs>
      <g>
       <use xlink:href="#mb122153e39" x="60.063494" y="224.64" style="stroke: #000000; stroke-width: 0.8"/>
      </g>
     </g>
     <g id="text_1">
      <!-- 0 -->
      <g transform="translate(56.882244 239.238437)scale(0.1 -0.1)">
       <defs>
        <path id="DejaVuSans-30" d="M 2034 4250 
Q 1547 4250 1301 3770 
Q 1056 3291 1056 2328 
Q 1056 1369 1301 889 
Q 1547 409 2034 409 
Q 2525 409 2770 889 
Q 3016 1369 3016 2328 
Q 3016 3291 2770 3770 
Q 2525 4250 2034 4250 
z
M 2034 4750 
Q 2819 4750 3233 4129 
Q 3647 3509 3647 2328 
Q 3647 1150 3233 529 
Q 2819 -91 2034 -91 
Q 1250 -91 836 529 
Q 422 1150 422 2328 
Q 422 3509 836 4129 
Q 1250 4750 2034 4750 
z
" transform="scale(0.015625)"/>
       </defs>
       <use xlink:href="#DejaVuSans-30"/>
      </g>
     </g>
    </g>
    <g id="xtick_2">
     <g id="line2d_2">
      <g>
       <use xlink:href="#mb122153e39" x="129.095846" y="224.64" style="stroke: #000000; stroke-width: 0.8"/>
      </g>
     </g>
     <g id="text_2">
      <!-- 1000 -->
      <g transform="translate(116.370846 239.238437)scale(0.1 -0.1)">
       <defs>
        <path id="DejaVuSans-31" d="M 794 531 
L 1825 531 
L 1825 4091 
L 703 3866 
L 703 4441 
L 1819 4666 
L 2450 4666 
L 2450 531 
L 3481 531 
L 3481 0 
L 794 0 
L 794 531 
z
" transform="scale(0.015625)"/>
       </defs>
       <use xlink:href="#DejaVuSans-31"/>
       <use xlink:href="#DejaVuSans-30" x="63.623047"/>
       <use xlink:href="#DejaVuSans-30" x="127.246094"/>
       <use xlink:href="#DejaVuSans-30" x="190.869141"/>
      </g>
     </g>
    </g>
    <g id="xtick_3">
     <g id="line2d_3">
      <g>
       <use xlink:href="#mb122153e39" x="198.128197" y="224.64" style="stroke: #000000; stroke-width: 0.8"/>
      </g>
     </g>
     <g id="text_3">
      <!-- 2000 -->
      <g transform="translate(185.403197 239.238437)scale(0.1 -0.1)">
       <defs>
        <path id="DejaVuSans-32" d="M 1228 531 
L 3431 531 
L 3431 0 
L 469 0 
L 469 531 
Q 828 903 1448 1529 
Q 2069 2156 2228 2338 
Q 2531 2678 2651 2914 
Q 2772 3150 2772 3378 
Q 2772 3750 2511 3984 
Q 2250 4219 1831 4219 
Q 1534 4219 1204 4116 
Q 875 4013 500 3803 
L 500 4441 
Q 881 4594 1212 4672 
Q 1544 4750 1819 4750 
Q 2544 4750 2975 4387 
Q 3406 4025 3406 3419 
Q 3406 3131 3298 2873 
Q 3191 2616 2906 2266 
Q 2828 2175 2409 1742 
Q 1991 1309 1228 531 
z
" transform="scale(0.015625)"/>
       </defs>
       <use xlink:href="#DejaVuSans-32"/>
       <use xlink:href="#DejaVuSans-30" x="63.623047"/>
       <use xlink:href="#DejaVuSans-30" x="127.246094"/>
       <use xlink:href="#DejaVuSans-30" x="190.869141"/>
      </g>
     </g>
    </g>
    <g id="xtick_4">
     <g id="line2d_4">
      <g>
       <use xlink:href="#mb122153e39" x="267.160548" y="224.64" style="stroke: #000000; stroke-width: 0.8"/>
      </g>
     </g>
     <g id="text_4">
      <!-- 3000 -->
      <g transform="translate(254.435548 239.238437)scale(0.1 -0.1)">
       <defs>
        <path id="DejaVuSans-33" d="M 2597 2516 
Q 3050 2419 3304 2112 
Q 3559 1806 3559 1356 
Q 3559 666 3084 287 
Q 2609 -91 1734 -91 
Q 1441 -91 1130 -33 
Q 819 25 488 141 
L 488 750 
Q 750 597 1062 519 
Q 1375 441 1716 441 
Q 2309 441 2620 675 
Q 2931 909 2931 1356 
Q 2931 1769 2642 2001 
Q 2353 2234 1838 2234 
L 1294 2234 
L 1294 2753 
L 1863 2753 
Q 2328 2753 2575 2939 
Q 2822 3125 2822 3475 
Q 2822 3834 2567 4026 
Q 2313 4219 1838 4219 
Q 1578 4219 1281 4162 
Q 984 4106 628 3988 
L 628 4550 
Q 988 4650 1302 4700 
Q 1616 4750 1894 4750 
Q 2613 4750 3031 4423 
Q 3450 4097 3450 3541 
Q 3450 3153 3228 2886 
Q 3006 2619 2597 2516 
z
" transform="scale(0.015625)"/>
       </defs>
       <use xlink:href="#DejaVuSans-33"/>
       <use xlink:href="#DejaVuSans-30" x="63.623047"/>
       <use xlink:href="#DejaVuSans-30" x="127.246094"/>
       <use xlink:href="#DejaVuSans-30" x="190.869141"/>
      </g>
     </g>
    </g>
    <g id="xtick_5">
     <g id="line2d_5">
      <g>
       <use xlink:href="#mb122153e39" x="336.192899" y="224.64" style="stroke: #000000; stroke-width: 0.8"/>
      </g>
     </g>
     <g id="text_5">
      <!-- 4000 -->
      <g transform="translate(323.467899 239.238437)scale(0.1 -0.1)">
       <defs>
        <path id="DejaVuSans-34" d="M 2419 4116 
L 825 1625 
L 2419 1625 
L 2419 4116 
z
M 2253 4666 
L 3047 4666 
L 3047 1625 
L 3713 1625 
L 3713 1100 
L 3047 1100 
L 3047 0 
L 2419 0 
L 2419 1100 
L 313 1100 
L 313 1709 
L 2253 4666 
z
" transform="scale(0.015625)"/>
       </defs>
       <use xlink:href="#DejaVuSans-34"/>
       <use xlink:href="#DejaVuSans-30" x="63.623047"/>
       <use xlink:href="#DejaVuSans-30" x="127.246094"/>
       <use xlink:href="#DejaVuSans-30" x="190.869141"/>
      </g>
     </g>
    </g>
   </g>
   <g id="matplotlib.axis_2">
    <g id="ytick_1">
     <g id="line2d_6">
      <defs>
       <path id="m8dfd7a451c" d="M 0 0 
L -3.5 0 
" style="stroke: #000000; stroke-width: 0.8"/>
      </defs>
      <g>
       <use xlink:href="#m8dfd7a451c" x="44.845313" y="205.243364" style="stroke: #000000; stroke-width: 0.8"/>
      </g>
     </g>
     <g id="text_6">
      <!-- −0.03 -->
      <g transform="translate(7.2 209.042582)scale(0.1 -0.1)">
       <defs>
        <path id="DejaVuSans-2212" d="M 678 2272 
L 4684 2272 
L 4684 1741 
L 678 1741 
L 678 2272 
z
" transform="scale(0.015625)"/>
        <path id="DejaVuSans-2e" d="M 684 794 
L 1344 794 
L 1344 0 
L 684 0 
L 684 794 
z
" transform="scale(0.015625)"/>
       </defs>
       <use xlink:href="#DejaVuSans-2212"/>
       <use xlink:href="#DejaVuSans-30" x="83.789062"/>
       <use xlink:href="#DejaVuSans-2e" x="147.412109"/>
       <use xlink:href="#DejaVuSans-30" x="179.199219"/>
       <use xlink:href="#DejaVuSans-33" x="242.822266"/>
      </g>
     </g>
    </g>
    <g id="ytick_2">
     <g id="line2d_7">
      <g>
       <use xlink:href="#m8dfd7a451c" x="44.845313" y="177.889732" style="stroke: #000000; stroke-width: 0.8"/>
      </g>
     </g>
     <g id="text_7">
      <!-- −0.02 -->
      <g transform="translate(7.2 181.688951)scale(0.1 -0.1)">
       <use xlink:href="#DejaVuSans-2212"/>
       <use xlink:href="#DejaVuSans-30" x="83.789062"/>
       <use xlink:href="#DejaVuSans-2e" x="147.412109"/>
       <use xlink:href="#DejaVuSans-30" x="179.199219"/>
       <use xlink:href="#DejaVuSans-32" x="242.822266"/>
      </g>
     </g>
    </g>
    <g id="ytick_3">
     <g id="line2d_8">
      <g>
       <use xlink:href="#m8dfd7a451c" x="44.845313" y="150.536101" style="stroke: #000000; stroke-width: 0.8"/>
      </g>
     </g>
     <g id="text_8">
      <!-- −0.01 -->
      <g transform="translate(7.2 154.335319)scale(0.1 -0.1)">
       <use xlink:href="#DejaVuSans-2212"/>
       <use xlink:href="#DejaVuSans-30" x="83.789062"/>
       <use xlink:href="#DejaVuSans-2e" x="147.412109"/>
       <use xlink:href="#DejaVuSans-30" x="179.199219"/>
       <use xlink:href="#DejaVuSans-31" x="242.822266"/>
      </g>
     </g>
    </g>
    <g id="ytick_4">
     <g id="line2d_9">
      <g>
       <use xlink:href="#m8dfd7a451c" x="44.845313" y="123.182469" style="stroke: #000000; stroke-width: 0.8"/>
      </g>
     </g>
     <g id="text_9">
      <!-- 0.00 -->
      <g transform="translate(15.579688 126.981688)scale(0.1 -0.1)">
       <use xlink:href="#DejaVuSans-30"/>
       <use xlink:href="#DejaVuSans-2e" x="63.623047"/>
       <use xlink:href="#DejaVuSans-30" x="95.410156"/>
       <use xlink:href="#DejaVuSans-30" x="159.033203"/>
      </g>
     </g>
    </g>
    <g id="ytick_5">
     <g id="line2d_10">
      <g>
       <use xlink:href="#m8dfd7a451c" x="44.845313" y="95.828838" style="stroke: #000000; stroke-width: 0.8"/>
      </g>
     </g>
     <g id="text_10">
      <!-- 0.01 -->
      <g transform="translate(15.579688 99.628057)scale(0.1 -0.1)">
       <use xlink:href="#DejaVuSans-30"/>
       <use xlink:href="#DejaVuSans-2e" x="63.623047"/>
       <use xlink:href="#DejaVuSans-30" x="95.410156"/>
       <use xlink:href="#DejaVuSans-31" x="159.033203"/>
      </g>
     </g>
    </g>
    <g id="ytick_6">
     <g id="line2d_11">
      <g>
       <use xlink:href="#m8dfd7a451c" x="44.845313" y="68.475206" style="stroke: #000000; stroke-width: 0.8"/>
      </g>
     </g>
     <g id="text_11">
      <!-- 0.02 -->
      <g transform="translate(15.579688 72.274425)scale(0.1 -0.1)">
       <use xlink:href="#DejaVuSans-30"/>
       <use xlink:href="#DejaVuSans-2e" x="63.623047"/>
       <use xlink:href="#DejaVuSans-30" x="95.410156"/>
       <use xlink:href="#DejaVuSans-32" x="159.033203"/>
      </g>
     </g>
    </g>
    <g id="ytick_7">
     <g id="line2d_12">
      <g>
       <use xlink:href="#m8dfd7a451c" x="44.845313" y="41.121575" style="stroke: #000000; stroke-width: 0.8"/>
      </g>
     </g>
     <g id="text_12">
      <!-- 0.03 -->
      <g transform="translate(15.579688 44.920794)scale(0.1 -0.1)">
       <use xlink:href="#DejaVuSans-30"/>
       <use xlink:href="#DejaVuSans-2e" x="63.623047"/>
       <use xlink:href="#DejaVuSans-30" x="95.410156"/>
       <use xlink:href="#DejaVuSans-33" x="159.033203"/>
      </g>
     </g>
    </g>
    <g id="ytick_8">
     <g id="line2d_13">
      <g>
       <use xlink:href="#m8dfd7a451c" x="44.845313" y="13.767943" style="stroke: #000000; stroke-width: 0.8"/>
      </g>
     </g>
     <g id="text_13">
      <!-- 0.04 -->
      <g transform="translate(15.579688 17.567162)scale(0.1 -0.1)">
       <use xlink:href="#DejaVuSans-30"/>
       <use xlink:href="#DejaVuSans-2e" x="63.623047"/>
       <use xlink:href="#DejaVuSans-30" x="95.410156"/>
       <use xlink:href="#DejaVuSans-34" x="159.033203"/>
      </g>
     </g>
    </g>
   </g>
   <g id="line2d_14">
    <path d="M 60.063494 177.275344 
L 60.615753 195.556732 
L 60.891883 201.650528 
L 61.09898 203.320061 
L 61.237044 203.153108 
L 61.306077 203.236585 
L 61.513174 204.488735 
L 61.582206 204.238305 
L 61.720271 202.485295 
L 61.927368 200.064472 
L 62.548659 192.551572 
L 62.893821 187.960356 
L 62.962853 188.12731 
L 64.481565 172.851081 
L 65.309953 149.561093 
L 66.552535 111.16183 
L 67.242859 102.396781 
L 67.311891 102.480258 
L 67.518988 100.977678 
L 67.588021 101.395061 
L 67.657053 102.396781 
L 67.726085 102.146351 
L 67.86415 103.315025 
L 68.071247 108.073194 
L 69.0377 137.957838 
L 69.797056 165.922518 
L 70.487379 181.198747 
L 70.625444 182.033514 
L 70.694476 181.950037 
L 70.763509 181.449177 
L 70.901573 181.950037 
L 71.108671 181.198747 
L 71.246735 179.11183 
L 71.660929 172.433698 
L 71.937059 170.012875 
L 72.075123 167.508575 
L 72.351253 161.665209 
L 72.420285 161.999115 
L 72.489318 161.832162 
L 72.627382 160.997396 
L 72.765447 161.581732 
L 72.972544 159.661769 
L 73.041576 159.244386 
L 73.317706 160.413059 
L 73.45577 159.244386 
L 73.7319 154.9036 
L 74.008029 150.228907 
L 74.284159 146.555934 
L 74.698353 135.537015 
L 74.836417 133.533575 
L 75.112547 124.852002 
L 75.457709 114.751327 
L 75.733838 108.657531 
L 76.286097 94.800405 
L 76.562226 90.459619 
L 76.838356 86.118833 
L 77.045453 87.704889 
L 77.114485 87.621413 
L 77.597712 85.284066 
L 77.873841 87.454459 
L 78.14997 85.284066 
L 78.219003 85.284066 
L 78.288035 85.033636 
L 78.633197 88.456179 
L 78.978359 90.626572 
L 79.392553 95.802125 
L 79.461585 95.551695 
L 79.668682 93.965639 
L 79.737714 94.049115 
L 79.806747 93.965639 
L 80.082876 93.297826 
L 83.603526 35.531978 
L 83.741591 34.112875 
L 84.086753 29.104275 
L 84.224817 29.438182 
L 84.431914 31.274668 
L 84.915141 36.867604 
L 85.122238 41.876204 
L 85.536432 57.903722 
L 86.433852 105.151511 
L 87.331273 158.409619 
L 87.814499 181.3657 
L 88.159661 191.633329 
L 88.504823 200.231425 
L 88.642888 200.982715 
L 88.71192 200.899238 
L 88.780952 201.066192 
L 88.919017 202.735725 
L 88.988049 202.485295 
L 89.264179 203.487015 
L 89.402244 202.568771 
L 89.540308 200.815762 
L 89.609341 199.396658 
L 89.678373 200.064472 
L 89.747405 200.732285 
L 89.816438 200.398378 
L 89.88547 200.648808 
L 90.092567 197.894079 
L 90.299664 195.473256 
L 90.506761 193.636769 
L 90.575794 193.887199 
L 90.713858 192.718526 
L 90.989988 189.880319 
L 91.266117 187.209066 
L 91.818376 179.278784 
L 92.301602 170.346781 
L 93.199023 140.629091 
L 93.751282 120.010356 
L 94.303541 104.483698 
L 94.57967 101.979398 
L 94.786767 100.059435 
L 94.924832 99.892482 
L 95.062896 100.393342 
L 95.131929 100.393342 
L 95.684188 106.403661 
L 96.788705 143.550774 
L 97.064835 153.234066 
L 97.271932 160.079152 
L 97.548061 169.762445 
L 97.686126 171.765885 
L 98.169352 179.779644 
L 98.238385 179.946597 
L 98.376449 180.86484 
L 98.445482 180.697887 
L 98.514514 180.030074 
L 98.583546 180.11355 
L 98.652579 180.030074 
L 98.721611 179.61269 
L 98.790643 180.197027 
L 98.859676 180.030074 
L 98.928708 180.11355 
L 99.549999 172.350221 
L 99.619032 173.101511 
L 99.688064 173.435418 
L 99.757096 173.184988 
L 100.102258 166.590332 
L 100.17129 166.673808 
L 100.240323 167.759005 
L 100.309355 167.592052 
L 100.723549 163.752125 
L 100.792582 163.501695 
L 100.930646 162.082592 
L 100.999679 162.249545 
L 101.068711 162.166069 
L 101.137743 162.166069 
L 101.275808 161.581732 
L 102.104196 145.554214 
L 102.587423 130.361462 
L 103.622908 104.817604 
L 103.96807 93.715209 
L 104.796458 80.859803 
L 104.86549 81.026757 
L 104.934523 80.94328 
L 105.14162 79.774607 
L 105.279684 81.110233 
L 105.555814 85.20059 
L 105.900976 88.205749 
L 106.108073 87.120553 
L 106.384202 91.127432 
L 106.453234 91.043956 
L 106.522267 91.210909 
L 106.798396 90.292666 
L 106.867428 90.209189 
L 107.074525 91.377862 
L 107.143558 91.377862 
L 107.281623 91.795246 
L 107.695817 88.205749 
L 108.524205 78.355504 
L 108.800334 76.268587 
L 109.421625 66.585295 
L 109.83582 56.818526 
L 111.837758 26.766929 
L 111.90679 26.683452 
L 112.113887 28.352985 
L 112.320984 30.022518 
L 112.390017 29.688612 
L 112.459049 30.189472 
L 113.356469 60.074115 
L 114.391955 125.853722 
L 114.944214 159.160909 
L 115.358408 180.697887 
L 116.048731 201.066192 
L 116.531958 204.405258 
L 116.60099 204.071351 
L 116.808087 205.156548 
L 116.877119 204.822641 
L 117.291313 199.730565 
L 117.429378 198.812322 
L 117.567443 198.227985 
L 118.050669 191.883759 
L 118.188734 191.299423 
L 118.257766 191.466376 
L 118.326799 191.299423 
L 118.810025 186.457776 
L 118.94809 186.62473 
L 119.017122 186.3743 
L 119.293252 182.200467 
L 120.052607 167.508575 
L 120.397769 156.907039 
L 121.088093 130.778845 
L 121.985513 100.560295 
L 122.261643 96.136032 
L 122.399707 95.134312 
L 122.46874 95.134312 
L 122.744869 93.798686 
L 122.813902 93.882162 
L 122.951966 95.551695 
L 123.573257 111.495737 
L 125.230034 170.764165 
L 126.127454 183.36914 
L 126.334551 182.283943 
L 126.472616 181.532654 
L 126.541649 181.783084 
L 126.610681 181.532654 
L 127.922296 167.425098 
L 127.991328 167.592052 
L 128.06036 167.675528 
L 128.198425 167.258145 
L 128.474554 163.835602 
L 128.543587 163.501695 
L 128.750684 161.581732 
L 128.957781 160.162629 
L 129.026813 159.995676 
L 129.924234 141.380381 
L 130.338428 130.111032 
L 130.545525 124.935479 
L 131.442945 97.722088 
L 131.719075 91.711769 
L 132.133269 82.612813 
L 132.409398 79.94156 
L 132.547463 78.605934 
L 132.616495 78.68941 
L 132.75456 80.358943 
L 132.961657 78.856364 
L 134.273272 91.294386 
L 134.342304 91.210909 
L 134.411337 91.461339 
L 134.549401 92.880442 
L 134.618434 92.796966 
L 134.756498 91.878722 
L 134.894563 92.212629 
L 135.10166 90.960479 
L 135.584887 86.118833 
L 135.653919 86.20231 
L 135.722951 86.285786 
L 135.791984 86.20231 
L 136.27521 80.94328 
L 137.103598 58.821966 
L 137.724889 47.051757 
L 138.484245 39.789287 
L 138.553278 39.538857 
L 138.691342 37.702371 
L 139.381666 23.427862 
L 139.588763 21.841806 
L 139.933925 24.346106 
L 140.071989 25.431302 
L 140.348119 30.523378 
L 140.555216 36.617174 
L 141.383604 77.019877 
L 142.004895 116.337383 
L 142.695219 161.498256 
L 143.178445 187.209066 
L 143.454575 196.725405 
L 143.799736 206.909558 
L 144.006833 209.079951 
L 144.075866 209.163428 
L 144.421027 212.001634 
L 144.559092 211.500774 
L 145.38748 201.316622 
L 145.66361 197.226265 
L 146.008772 192.802002 
L 146.353933 188.461216 
L 146.630063 186.541253 
L 146.699095 186.541253 
L 146.975224 182.534373 
L 147.458451 174.353661 
L 148.148774 154.15231 
L 148.424904 143.634251 
L 149.460389 107.822764 
L 149.598454 104.567174 
L 149.943616 96.386462 
L 150.150713 94.549975 
L 150.35781 92.630012 
L 150.426842 92.963919 
L 150.495874 92.880442 
L 150.633939 93.130872 
L 150.841036 95.134312 
L 151.048133 98.473378 
L 151.462327 111.579214 
L 152.221683 140.545614 
L 153.119104 177.108391 
L 153.87846 190.214226 
L 153.947492 190.214226 
L 154.085557 189.295983 
L 154.637815 183.202187 
L 154.913945 177.024914 
L 155.121042 174.270184 
L 155.811365 165.338182 
L 156.501689 160.663489 
L 156.570721 160.913919 
L 156.639754 161.414779 
L 156.846851 159.578292 
L 157.399109 151.814963 
L 157.468142 151.39758 
L 157.744271 143.968157 
L 158.227498 130.194509 
L 159.539112 83.030197 
L 159.815242 78.105074 
L 160.298468 72.178231 
L 160.367501 72.595614 
L 160.574598 73.096474 
L 160.64363 72.679091 
L 160.712662 72.929521 
L 160.850727 73.931241 
L 160.988792 74.348624 
L 161.402986 80.776327 
L 161.472018 80.859803 
L 161.610083 81.945 
L 162.093309 90.710049 
L 162.300406 92.630012 
L 162.714601 94.883882 
L 162.783633 95.217789 
L 162.852665 95.134312 
L 162.921698 94.716929 
L 163.335892 87.621413 
L 163.404924 87.287506 
L 163.750086 78.43898 
L 164.026215 72.428661 
L 164.16428 71.176511 
L 164.509442 66.251388 
L 164.992668 57.653292 
L 165.199765 53.562936 
L 165.406862 50.22387 
L 165.544927 48.72129 
L 166.23525 35.198071 
L 166.580412 30.606855 
L 167.063639 20.088796 
L 167.270736 18.00188 
L 167.339768 18.085356 
L 167.546865 21.257469 
L 167.615897 20.673133 
L 167.68493 20.673133 
L 167.822995 22.092236 
L 168.237189 30.189472 
L 168.651383 47.886523 
L 168.85848 58.821966 
L 170.722353 178.610971 
L 171.136547 193.469816 
L 171.688806 206.325221 
L 171.757839 206.575651 
L 172.103 209.747764 
L 172.172033 210.081671 
L 172.241065 209.914717 
L 172.655259 203.570491 
L 172.862356 204.154828 
L 172.931389 203.820921 
L 173.345583 197.226265 
L 173.414615 197.142789 
L 173.621712 195.389779 
L 174.795262 180.280504 
L 175.002359 177.609251 
L 175.347521 170.179828 
L 177.004297 110.9114 
L 177.280427 103.648931 
L 177.694621 94.466499 
L 177.901718 93.297826 
L 177.97075 93.464779 
L 178.177847 93.130872 
L 178.453977 94.383022 
L 178.799138 100.309865 
L 179.42043 118.841683 
L 180.524947 161.832162 
L 180.663012 164.002555 
L 181.146238 178.527494 
L 181.353335 181.031794 
L 181.836562 187.12559 
L 181.905594 187.12559 
L 182.250756 184.454337 
L 182.526885 183.61957 
L 183.148176 174.270184 
L 183.286241 174.437138 
L 183.493338 170.012875 
L 183.700435 166.673808 
L 183.769468 166.506855 
L 183.907532 165.672088 
L 183.976565 165.421658 
L 184.183662 162.416499 
L 184.459791 158.743526 
L 184.597856 157.073993 
L 184.666888 157.157469 
L 184.804953 156.656609 
L 185.357212 145.63769 
L 185.495276 143.216867 
L 186.1856 121.429459 
L 186.461729 113.248747 
L 186.944956 98.890762 
L 187.152053 93.047396 
L 187.35915 86.870123 
L 187.635279 82.278907 
L 187.704312 82.278907 
L 188.25657 73.346904 
L 188.394635 75.684251 
L 188.463668 75.183391 
L 188.670765 73.263428 
L 188.808829 73.764287 
L 189.43012 83.614533 
L 189.499153 82.94672 
L 189.70625 84.95016 
L 189.913347 89.541376 
L 189.982379 89.290946 
L 190.051412 88.706609 
L 190.120444 88.957039 
L 190.396573 91.127432 
L 190.60367 90.209189 
L 190.672703 90.877002 
L 190.741735 90.543096 
L 190.8798 90.292666 
L 191.293994 84.19887 
L 191.708188 79.774607 
L 192.260447 72.512138 
L 192.881738 57.319386 
L 193.019803 56.902002 
L 194.469482 29.271229 
L 195.090773 18.669693 
L 195.366903 22.092236 
L 195.435935 21.507899 
L 195.643032 23.594816 
L 195.988194 31.608575 
L 196.333356 46.21699 
L 196.74755 65.917482 
L 197.437873 108.156671 
L 198.81852 186.708206 
L 199.301747 203.487015 
L 199.854005 208.579091 
L 199.923038 208.579091 
L 200.130135 209.163428 
L 200.2682 207.577371 
L 200.406264 204.989595 
L 200.475297 205.073071 
L 200.544329 204.822641 
L 200.613361 204.906118 
L 200.682394 205.406978 
L 200.751426 205.156548 
L 201.579814 194.638489 
L 201.717879 192.384619 
L 202.063041 187.37602 
L 202.270138 186.12387 
L 202.960461 172.851081 
L 203.650785 152.566253 
L 204.203044 132.615332 
L 204.962399 106.570614 
L 205.652723 92.880442 
L 205.928852 91.294386 
L 205.997885 91.294386 
L 206.135949 92.296106 
L 206.204982 92.045676 
L 206.412079 93.965639 
L 206.964338 106.487138 
L 207.240467 117.255627 
L 207.516596 126.187629 
L 208.068855 149.561093 
L 208.483049 164.336462 
L 208.966276 178.610971 
L 209.656599 187.62645 
L 210.070793 184.287383 
L 210.139826 184.87172 
L 210.208858 184.704767 
L 210.899182 172.433698 
L 211.037246 173.101511 
L 211.244343 169.512015 
L 211.45144 165.004275 
L 211.589505 165.755565 
L 211.72757 165.338182 
L 211.796602 165.922518 
L 211.865635 165.588612 
L 211.934667 165.421658 
L 212.279829 161.080872 
L 212.486926 159.494816 
L 213.108217 145.220307 
L 213.384346 139.460418 
L 213.867573 125.770246 
L 214.07467 120.093833 
L 214.488864 104.734128 
L 214.764993 99.892482 
L 214.97209 93.130872 
L 215.317252 82.19543 
L 215.455317 81.110233 
L 215.593382 81.611093 
L 215.662414 81.110233 
L 215.938543 76.852924 
L 216.007576 76.852924 
L 216.214673 78.105074 
L 216.559834 76.602494 
L 216.628867 76.769447 
L 217.112093 81.44414 
L 217.181126 80.525897 
L 217.250158 80.776327 
L 217.526287 84.95016 
L 217.802417 90.042236 
L 217.940481 91.795246 
L 218.009514 91.461339 
L 218.147579 91.962199 
L 218.285643 92.880442 
L 218.49274 92.045676 
L 219.390161 81.861523 
L 219.804355 73.179951 
L 219.873387 72.679091 
L 220.632743 59.239349 
L 220.701776 59.823686 
L 220.770808 59.740209 
L 222.565649 22.927002 
L 222.910811 17.083636 
L 222.979843 17.167113 
L 223.255973 21.173993 
L 223.325005 20.589656 
L 223.46307 19.754889 
L 223.532102 20.506179 
L 223.877264 29.772088 
L 224.084361 39.538857 
L 224.36049 49.639533 
L 224.498555 56.651572 
L 225.672105 134.117912 
L 226.569525 183.786523 
L 227.190817 203.653968 
L 227.535978 206.325221 
L 227.605011 206.074791 
L 227.743075 207.660848 
L 227.88114 209.163428 
L 227.950172 208.996474 
L 228.157269 205.323501 
L 228.364367 203.570491 
L 228.502431 203.737445 
L 228.571464 203.320061 
L 228.640496 203.570491 
L 228.709528 203.487015 
L 229.123722 196.558452 
L 229.192755 196.641929 
L 229.330819 194.888919 
L 229.814046 188.461216 
L 230.021143 186.290823 
L 230.159208 185.12215 
L 230.849531 172.684128 
L 231.332758 159.745246 
L 232.920502 103.315025 
L 233.058566 100.977678 
L 233.334696 93.882162 
L 233.610825 90.626572 
L 233.679858 90.626572 
L 233.74889 90.209189 
L 234.370181 96.386462 
L 235.129537 120.594693 
L 235.681796 140.962998 
L 235.81986 145.303784 
L 236.579216 174.687568 
L 237.131475 184.203907 
L 237.476637 187.542973 
L 237.545669 187.459496 
L 237.752766 184.62129 
L 237.821799 184.37086 
L 237.890831 184.788243 
L 237.959863 184.537813 
L 238.028896 184.62129 
L 238.097928 184.12043 
L 238.719219 173.351941 
L 238.995349 170.931118 
L 239.271478 164.753845 
L 239.34051 164.419939 
L 239.547607 162.499975 
L 239.61664 162.416499 
L 239.823737 160.246106 
L 240.099866 156.823563 
L 240.237931 157.240946 
L 240.445028 154.736646 
L 241.204384 141.714287 
L 241.549546 131.279705 
L 243.275354 85.45102 
L 243.413419 84.866683 
L 243.827613 79.357224 
L 243.896646 79.357224 
L 243.965678 79.524177 
L 244.241807 77.771167 
L 244.448904 76.685971 
L 244.517937 76.519017 
L 244.586969 76.685971 
L 245.20826 84.532776 
L 245.553422 92.546536 
L 246.105681 97.471658 
L 246.312778 98.807285 
L 246.38181 98.556855 
L 247.003101 89.958759 
L 247.279231 84.365823 
L 248.038587 69.840885 
L 248.314716 63.830565 
L 249.00504 52.060356 
L 249.074072 51.642973 
L 249.695363 42.877924 
L 250.109557 35.949361 
L 250.316654 32.109435 
L 250.454719 30.022518 
L 250.799881 23.427862 
L 251.006978 22.843526 
L 251.07601 23.093956 
L 251.490204 26.850405 
L 251.697301 28.937322 
L 252.525689 58.404582 
L 253.285045 104.984558 
L 254.527628 185.456057 
L 255.079886 206.325221 
L 255.356016 211.083391 
L 255.494081 213.08683 
L 255.632145 212.585971 
L 255.701178 212.919877 
L 255.839242 214.756364 
L 256.529566 206.993034 
L 256.66763 206.074791 
L 257.012792 200.314902 
L 258.11731 183.61957 
L 258.186342 184.203907 
L 258.255375 183.786523 
L 258.600536 177.275344 
L 258.738601 175.939717 
L 259.221827 166.339902 
L 261.568927 95.301265 
L 261.914089 91.043956 
L 261.983122 91.544816 
L 262.190219 93.297826 
L 262.259251 93.464779 
L 262.466348 96.636892 
L 263.156671 117.589533 
L 264.88248 185.456057 
L 265.020545 186.12387 
L 265.503771 190.381179 
L 265.710868 188.62817 
L 265.986998 183.452617 
L 266.194095 180.86484 
L 266.401192 177.108391 
L 266.884418 168.259865 
L 267.022483 167.425098 
L 267.436677 159.244386 
L 267.643774 160.079152 
L 267.781839 158.576572 
L 267.919904 157.574853 
L 268.057968 157.240946 
L 268.334098 154.40274 
L 268.40313 154.736646 
L 268.472163 154.987076 
L 268.610227 151.731486 
L 269.093454 138.959558 
L 269.438615 132.865762 
L 270.267004 110.160111 
L 270.612165 100.977678 
L 270.819262 98.139472 
L 271.233457 85.534496 
L 271.302489 85.033636 
L 271.371521 85.617973 
L 271.509586 84.4493 
L 271.716683 81.778047 
L 271.785715 82.19543 
L 271.92378 80.44242 
L 272.061845 79.524177 
L 272.268942 81.44414 
L 272.476039 80.025037 
L 272.545071 80.358943 
L 272.959265 87.955319 
L 273.166362 93.130872 
L 273.304427 93.214349 
L 273.718621 97.972518 
L 273.787654 97.805565 
L 273.856686 97.555135 
L 273.925718 97.805565 
L 274.063783 96.803845 
L 274.27088 98.974238 
L 274.339912 98.807285 
L 274.477977 97.471658 
L 274.616042 98.640332 
L 274.754106 95.969079 
L 274.961204 92.796966 
L 275.306365 89.624853 
L 275.513462 86.285786 
L 275.789592 80.358943 
L 276.065721 74.599054 
L 276.687012 59.990639 
L 276.894109 56.067236 
L 277.377336 46.46742 
L 277.79153 40.123194 
L 277.929595 39.371904 
L 278.067659 39.455381 
L 279.172177 23.845246 
L 279.241209 24.012199 
L 279.448306 25.765209 
L 279.517339 25.765209 
L 279.8625 29.855565 
L 280.069598 34.697211 
L 281.105083 85.117113 
L 282.968956 194.221106 
L 283.38315 206.659128 
L 283.65928 210.666007 
L 283.935409 211.834681 
L 284.004442 211.751204 
L 284.83283 204.321781 
L 285.523153 191.716806 
L 286.351541 180.280504 
L 286.972833 171.181548 
L 287.801221 149.728047 
L 288.629609 124.017236 
L 289.2509 104.233268 
L 289.872191 93.882162 
L 290.079288 92.463059 
L 290.148321 92.546536 
L 290.42445 95.050835 
L 290.562515 95.969079 
L 291.252838 118.090393 
L 291.87413 144.8864 
L 292.909615 181.031794 
L 293.599938 188.37774 
L 293.668971 188.544693 
L 294.428327 176.524054 
L 294.911553 166.172948 
L 295.325747 160.663489 
L 295.532844 157.574853 
L 295.601877 158.159189 
L 295.670909 157.825283 
L 295.947038 155.154029 
L 296.016071 155.070553 
L 296.223168 153.40102 
L 296.430265 151.314103 
L 296.499297 150.980197 
L 297.534782 131.947518 
L 298.018009 118.507776 
L 298.294138 110.494017 
L 298.501235 103.148071 
L 298.708332 101.395061 
L 298.984462 96.720369 
L 299.329624 89.958759 
L 299.398656 89.457899 
L 299.467688 89.541376 
L 299.536721 89.791806 
L 299.674785 89.207469 
L 300.088979 83.280627 
L 300.158012 83.781486 
L 300.227044 83.69801 
L 300.296076 84.115393 
L 300.434141 83.531057 
L 300.503173 83.69801 
L 300.641238 83.364103 
L 300.779303 84.365823 
L 300.9864 87.120553 
L 301.193497 90.710049 
L 301.262529 90.125713 
L 301.538659 93.381302 
L 301.952853 97.972518 
L 302.367047 101.562015 
L 302.712209 102.897641 
L 303.05737 98.974238 
L 303.195435 97.889042 
L 304.438018 70.425221 
L 304.714147 66.167912 
L 304.852212 64.665332 
L 305.266406 56.067236 
L 305.956729 43.879644 
L 306.85415 34.363305 
L 307.544473 28.352985 
L 308.510926 43.796167 
L 309.960606 119.259066 
L 311.27222 194.972396 
L 311.824479 210.749484 
L 312.031576 213.003354 
L 312.100608 213.003354 
L 312.238673 213.58769 
L 312.307706 213.504214 
L 312.376738 213.754644 
L 312.652867 211.667727 
L 314.378676 184.203907 
L 314.447708 184.12043 
L 314.516741 183.786523 
L 314.79287 181.3657 
L 314.861903 181.031794 
L 315.414161 172.767604 
L 315.897388 159.912199 
L 316.932873 127.022396 
L 317.692229 104.233268 
L 318.175455 97.137752 
L 318.451585 96.219509 
L 319.003844 104.066314 
L 319.48707 118.758206 
L 321.074814 180.11355 
L 321.143846 181.198747 
L 321.212879 181.031794 
L 321.281911 181.11527 
L 321.419976 183.452617 
L 321.627073 185.37258 
L 321.696105 185.539533 
L 321.903202 186.791683 
L 322.041267 185.789963 
L 322.317396 181.3657 
L 322.524494 180.36398 
L 323.214817 166.256425 
L 323.490946 162.833882 
L 323.767076 156.740086 
L 323.836108 156.406179 
L 324.664496 145.554214 
L 324.802561 145.470737 
L 325.216755 139.627371 
L 325.35482 137.707408 
L 325.492885 137.206548 
L 325.699982 134.117912 
L 326.183208 122.180749 
L 326.597402 113.16527 
L 326.942564 103.982838 
L 327.080629 101.895921 
L 327.218693 98.473378 
L 327.70192 86.20231 
L 327.909017 86.619693 
L 328.047082 85.367543 
L 328.254179 81.861523 
L 328.392243 83.113673 
L 328.461276 83.030197 
L 328.530308 82.863243 
L 328.668373 81.69457 
L 328.737405 81.861523 
L 328.944502 84.69973 
L 329.013535 84.532776 
L 329.151599 86.035356 
L 329.910955 97.221229 
L 330.394182 101.562015 
L 330.532246 101.478538 
L 330.739343 103.148071 
L 330.808376 102.981118 
L 330.94644 103.148071 
L 331.22257 99.892482 
L 331.498699 95.384742 
L 331.981926 86.285786 
L 332.327087 79.106794 
L 333.845799 52.9786 
L 333.983864 52.47774 
L 334.536123 45.382224 
L 334.605155 45.048317 
L 334.812252 41.709251 
L 335.019349 40.957961 
L 335.364511 36.116314 
L 335.502576 35.865885 
L 335.847737 30.523378 
L 335.91677 30.690332 
L 335.985802 31.274668 
L 336.054834 31.024238 
L 336.123867 30.940762 
L 336.261931 31.525098 
L 336.469028 33.528538 
L 336.607093 33.278108 
L 336.81419 36.784128 
L 337.642578 68.922641 
L 339.43742 185.12215 
L 340.058711 206.408698 
L 340.403872 212.001634 
L 340.472905 211.918157 
L 340.61097 210.916437 
L 340.818067 212.001634 
L 341.163228 208.746044 
L 341.577422 200.314902 
L 341.715487 198.895799 
L 342.267746 188.294263 
L 342.336778 188.294263 
L 342.543875 186.87516 
L 343.027102 182.61785 
L 343.441296 179.696167 
L 344.062587 171.515455 
L 344.476781 160.413059 
L 346.064525 103.815885 
L 346.616784 94.549975 
L 346.823881 93.798686 
L 346.892913 93.715209 
L 347.030978 93.882162 
L 347.721302 112.747887 
L 349.378078 175.104951 
L 349.516143 177.859681 
L 349.72324 180.530934 
L 349.999369 182.951757 
L 350.068402 183.36914 
L 350.551628 179.86312 
L 351.932275 154.736646 
L 352.622599 148.64285 
L 352.760663 149.060233 
L 352.96776 147.223747 
L 353.520019 139.126511 
L 353.658084 138.041314 
L 354.072278 128.274545 
L 354.279375 124.518096 
L 354.348407 124.017236 
L 354.555504 116.754767 
L 354.900666 107.154951 
L 355.521957 89.958759 
L 355.867119 86.118833 
L 356.143249 80.609373 
L 356.281313 80.525897 
L 356.695507 82.362383 
L 356.76454 82.19543 
L 356.971637 81.110233 
L 357.247766 85.784926 
L 357.454863 87.704889 
L 357.523896 87.955319 
L 357.800025 92.129152 
L 358.076154 97.805565 
L 358.973575 104.734128 
L 359.456801 99.057715 
L 359.801963 93.631732 
L 360.423254 87.788366 
L 361.527772 63.580135 
L 362.218095 53.062076 
L 362.701322 47.803047 
L 363.184548 43.044877 
L 363.322613 41.792727 
L 363.391645 41.876204 
L 363.52971 40.457101 
L 363.80584 37.869324 
L 363.943904 38.036278 
L 364.012937 37.785848 
L 364.151001 36.366744 
L 364.220034 37.034558 
L 364.289066 36.617174 
L 364.427131 34.196351 
L 364.427131 34.196351 
" clip-path="url(#p547c0bafd5)" style="fill: none; stroke: #1f77b4; stroke-width: 1.5; stroke-linecap: square"/>
   </g>
   <g id="patch_3">
    <path d="M 44.845313 224.64 
L 44.845313 7.2 
" style="fill: none; stroke: #000000; stroke-width: 0.8; stroke-linejoin: miter; stroke-linecap: square"/>
   </g>
   <g id="patch_4">
    <path d="M 379.645313 224.64 
L 379.645313 7.2 
" style="fill: none; stroke: #000000; stroke-width: 0.8; stroke-linejoin: miter; stroke-linecap: square"/>
   </g>
   <g id="patch_5">
    <path d="M 44.845313 224.64 
L 379.645313 224.64 
" style="fill: none; stroke: #000000; stroke-width: 0.8; stroke-linejoin: miter; stroke-linecap: square"/>
   </g>
   <g id="patch_6">
    <path d="M 44.845313 7.2 
L 379.645313 7.2 
" style="fill: none; stroke: #000000; stroke-width: 0.8; stroke-linejoin: miter; stroke-linecap: square"/>
   </g>
  </g>
 </g>
 <defs>
  <clipPath id="p547c0bafd5">
   <rect x="44.845313" y="7.2" width="334.8" height="217.44"/>
  </clipPath>
 </defs>
</svg>
